<svg xmlns="http://www.w3.org/2000/svg" width="1386" height="287" viewBox="339.0 -14.0 1386.0 287.5"><rect x="339.0" y="-14.0" width="1386.0" height="287.5" fill="#fff"/>
<rect x="0" y="0" width="1920" height="2160" fill="#fff"/>
<g class="sys sys-p0" fill="#111">
<text x="4" y="135.3" font-size="17.4" font-family="'Crimson Pro Light', serif" fill="#8a8a8a">EH</text>
<rect x="144.00" y="160.54" width="1776.00" height="1.58"/>
<rect x="144.00" y="144.74" width="1776.00" height="1.58"/>
<rect x="144.00" y="128.94" width="1776.00" height="1.58"/>
<rect x="144.00" y="113.14" width="1776.00" height="1.58"/>
<rect x="144.00" y="97.34" width="1776.00" height="1.58"/>
<g transform="translate(91.639 70.025) scale(15.80000)"><path d="M1.056 7.319 1.06 7.147H1.044C0.848 7.147 0.68 7.043 0.576 6.887C0.616 6.903 0.656 6.911 0.7 6.911C0.908 6.911 1.08 6.739 1.08 6.531C1.08 6.307 0.916 6.119 0.7 6.119C0.464 6.119 0.252 6.299 0.252 6.531C0.252 6.967 0.6 7.319 1.032 7.319ZM1.836 5.591C1.78 5.099 1.692 4.639 1.596 4.175C2.024 4.219 2.288 4.575 2.288 4.935C2.288 5.211 2.108 5.495 1.836 5.591ZM0.288 4.667C0.288 4.027 0.712 3.539 1.14 3.055C1.208 3.287 1.268 3.523 1.324 3.755C0.916 3.847 0.684 4.191 0.684 4.543C0.684 4.823 0.832 5.111 1.152 5.283C1.164 5.287 1.176 5.291 1.188 5.291C1.236 5.291 1.276 5.247 1.276 5.203C1.276 5.183 1.268 5.163 1.248 5.143C1.024 5.015 0.924 4.827 0.924 4.651C0.924 4.419 1.104 4.207 1.42 4.175C1.524 4.651 1.616 5.123 1.672 5.631C1.564 5.647 1.456 5.655 1.344 5.655C0.804 5.655 0.288 5.207 0.288 4.667ZM1.332 5.827C1.456 5.827 1.572 5.815 1.688 5.795C1.7 5.919 1.704 6.039 1.704 6.163C1.704 6.235 1.7 6.311 1.696 6.383C1.672 6.779 1.432 7.139 1.06 7.147L1.056 7.319C1.512 7.307 1.836 6.883 1.864 6.407C1.868 6.331 1.872 6.251 1.872 6.175C1.872 6.035 1.864 5.895 1.852 5.755C1.956 5.723 2.056 5.679 2.144 5.611C2.44 5.387 2.572 5.075 2.572 4.771C2.572 4.239 2.168 3.727 1.548 3.727C1.532 3.727 1.512 3.731 1.496 3.731C1.428 3.455 1.356 3.175 1.272 2.903C1.648 2.467 1.992 2.019 1.992 1.447C1.992 0.995 1.744 0.351 1.46 0.015C1.436 -0.005 1.404 -0.005 1.38 0.015C1.004 0.287 0.784 0.723 0.784 1.183C0.784 1.391 0.788 1.599 0.812 1.807C0.844 2.067 0.916 2.319 0.992 2.567C0.524 3.107 0 3.623 0 4.331C0 5.139 0.58 5.827 1.332 5.827ZM1.704 1.115C1.704 1.619 1.44 2.023 1.12 2.411C1.048 2.167 0.976 1.931 0.976 1.635C0.976 1.195 1.228 0.791 1.624 0.599C1.688 0.799 1.704 0.895 1.704 1.115Z"/></g>
<path d="M145.0,185.4 L148.0,185.5 L151.1,185.5 L154.2,185.6 L157.3,185.7 L160.4,185.8 L163.4,185.9 L166.5,186.0 L169.6,186.1 L172.7,186.3 L175.8,186.4 L178.8,186.6 L181.9,186.7 L185.0,186.8 L188.1,187.0 L191.2,187.1 L194.2,187.2 L197.3,187.4 L200.4,187.5 L203.5,187.6 L206.6,187.7 L209.6,187.8 L212.7,187.9 L215.8,188.0 L218.9,188.1 L222.0,188.2 L225.0,188.3 L228.1,188.5 L231.2,188.6 L234.3,188.7 L237.4,188.8 L240.4,188.9 L243.5,189.0 L246.6,189.1 L249.7,189.2 L252.8,189.3 L255.8,189.4 L258.9,189.5 L262.0,189.6 L265.1,189.7 L268.2,189.8 L271.2,189.9 L274.3,190.0 L277.4,190.2 L280.5,190.3 L283.6,190.4 L286.6,190.5 L289.7,190.6 L292.8,190.7 L295.9,190.8 L299.0,190.9 L302.0,191.0 L305.1,191.1 L308.2,191.2 L311.3,191.3 L314.4,191.5 L317.4,191.6 L320.5,191.7 L323.6,191.8 L326.7,191.9 L329.8,192.0 L332.8,192.0 L335.9,192.1 L339.0,192.2 L342.1,192.3 L345.2,192.4 L348.2,192.5 L351.3,192.6 L354.4,192.7 L357.5,192.8 L360.6,192.8 L363.6,192.9 L366.7,193.0 L369.8,193.1 L372.9,193.2 L376.0,193.3 L379.0,193.4 L382.1,193.4 L385.2,193.5 L388.3,193.6 L391.4,193.7 L394.4,193.8 L397.5,193.9 L400.6,194.0 L403.7,194.0 L406.8,194.1 L409.8,194.2 L412.9,194.3 L416.0,194.4 L419.1,194.5 L422.2,194.6 L425.2,194.7 L428.3,194.7 L431.4,194.8 L434.5,194.9 L437.6,195.0 L440.6,195.1 L443.7,195.2 L446.8,195.3 L449.9,195.4 L453.0,195.4 L456.0,195.5 L459.1,195.6 L462.2,195.7 L465.3,195.8 L468.4,195.9 L471.4,196.0 L474.5,196.1 L477.6,196.1 L480.7,196.2 L483.8,196.3 L486.8,196.4 L489.9,196.5 L493.0,196.6 L496.1,196.7 L499.2,196.8 L502.2,196.8 L505.3,196.9 L508.4,197.0 L511.5,197.1 L514.6,197.2 L517.6,197.3 L520.7,197.4 L523.8,197.5 L526.9,197.6 L530.0,197.7 L533.0,197.7 L536.1,197.8 L539.2,197.9 L542.3,198.0 L545.4,198.1 L548.4,198.2 L551.5,198.3 L554.6,198.3 L557.7,198.4 L560.8,198.5 L563.8,198.6 L566.9,198.7 L570.0,198.7 L573.1,198.8 L576.2,198.9 L579.2,199.0 L582.3,199.0 L585.4,199.1 L588.5,199.2 L591.6,199.3 L594.6,199.3 L597.7,199.4 L600.8,199.5 L603.9,199.6 L607.0,199.6 L610.0,199.7 L613.1,199.8 L616.2,199.8 L619.3,199.9 L622.4,200.0 L625.4,200.1 L628.5,200.1 L631.6,200.2 L634.7,200.3 L637.8,200.4 L640.8,200.4 L643.9,200.5 L647.0,200.6 L650.1,200.7 L653.2,200.7 L656.2,200.8 L659.3,200.9 L662.4,201.0 L665.5,201.0 L668.6,201.1 L671.6,201.2 L674.7,201.3 L677.8,201.3 L680.9,201.4 L684.0,201.5 L687.0,201.6 L690.1,201.6 L693.2,201.7 L696.3,201.8 L699.4,201.9 L702.4,201.9 L705.5,202.0 L708.6,202.1 L711.7,202.2 L714.8,202.2 L717.8,202.3 L720.9,202.4 L724.0,202.5 L727.1,202.5 L730.2,202.6 L733.2,202.7 L736.3,202.8 L739.4,202.8 L742.5,202.9 L745.6,203.0 L748.6,203.1 L751.7,203.1 L754.8,203.2 L757.9,203.3 L761.0,203.4 L764.0,203.4 L767.1,203.5 L770.2,203.6 L773.3,203.7 L776.4,203.7 L779.4,203.8 L782.5,203.9 L785.6,203.9 L788.7,204.0 L791.8,204.1 L794.8,204.2 L797.9,204.2 L801.0,204.3 L804.1,204.4 L807.2,204.5 L810.2,204.5 L813.3,204.6 L816.4,204.7 L819.5,204.8 L822.6,204.8 L825.6,204.9 L828.7,205.0 L831.8,205.1 L834.9,205.1 L838.0,205.2 L841.0,205.3 L844.1,205.4 L847.2,205.4 L850.3,205.5 L853.4,205.6 L856.4,205.7 L859.5,205.7 L862.6,205.8 L865.7,205.9 L868.8,206.0 L871.8,206.0 L874.9,206.1 L878.0,206.2 L881.1,206.3 L884.2,206.3 L887.2,206.4 L890.3,206.5 L893.4,206.6 L896.5,206.6 L899.6,206.7 L902.6,206.8 L905.7,206.9 L908.8,206.9 L911.9,207.0 L915.0,207.1 L918.0,207.2 L921.1,207.2 L924.2,207.3 L927.3,207.4 L930.4,207.5 L933.4,207.5 L936.5,207.6 L939.6,207.7 L942.7,207.8 L945.8,207.8 L948.8,207.9 L951.9,208.0 L955.0,208.1 L958.1,208.1 L961.2,208.2 L964.2,208.3 L967.3,208.4 L970.4,208.4 L973.5,208.5 L976.6,208.6 L979.6,208.7 L982.7,208.7 L985.8,208.8 L988.9,208.9 L992.0,209.0 L995.0,209.0 L998.1,209.1 L1001.2,209.2 L1004.3,209.3 L1007.4,209.3 L1010.4,209.4 L1013.5,209.5 L1016.6,209.6 L1019.7,209.6 L1022.8,209.7 L1025.8,209.8 L1028.9,209.9 L1032.0,209.9 L1035.1,210.0 L1038.2,210.1 L1041.2,210.2 L1044.3,210.2 L1047.4,210.3 L1050.5,210.4 L1053.6,210.5 L1056.6,210.5 L1059.7,210.6 L1062.8,210.7 L1065.9,210.8 L1069.0,210.8 L1072.0,210.9 L1075.1,211.0 L1078.2,211.1 L1081.3,211.1 L1084.4,211.2 L1087.4,211.3 L1090.5,211.4 L1093.6,211.4 L1096.7,211.5 L1099.8,211.6 L1102.8,211.7 L1105.9,211.8 L1109.0,211.9 L1112.1,212.0 L1115.2,212.1 L1118.2,212.2 L1121.3,212.3 L1124.4,212.4 L1127.5,212.5 L1130.6,212.6 L1133.6,212.7 L1136.7,212.8 L1139.8,212.9 L1142.9,213.0 L1146.0,213.1 L1149.0,213.2 L1152.1,213.3 L1155.2,213.4 L1158.3,213.5 L1161.4,213.5 L1164.4,213.6 L1167.5,213.7 L1170.6,213.8 L1173.7,213.9 L1176.8,214.0 L1179.8,214.1 L1182.9,214.1 L1186.0,214.2 L1189.1,214.3 L1192.2,214.4 L1195.2,214.4 L1198.3,214.5 L1201.4,214.5 L1204.5,214.6 L1207.6,214.7 L1210.6,214.7 L1213.7,214.7 L1216.8,214.8 L1219.9,214.8 L1223.0,214.8 L1226.0,214.9 L1229.1,214.9 L1232.2,214.9 L1235.3,214.9 L1238.4,214.9 L1241.4,214.9 L1244.5,214.9 L1247.6,214.9 L1250.7,214.9 L1253.8,214.8 L1256.8,214.8 L1259.9,214.8 L1263.0,214.8 L1266.1,214.8 L1269.2,214.7 L1272.2,214.7 L1275.3,214.7 L1278.4,214.7 L1281.5,214.6 L1284.6,214.6 L1287.6,214.6 L1290.7,214.5 L1293.8,214.5 L1296.9,214.4 L1300.0,214.4 L1303.0,214.4 L1306.1,214.3 L1309.2,214.3 L1312.3,214.2 L1315.4,214.2 L1318.4,214.1 L1321.5,214.1 L1324.6,214.0 L1327.7,214.0 L1330.8,213.9 L1333.8,213.9 L1336.9,213.8 L1340.0,213.8 L1343.1,213.8 L1346.2,213.7 L1349.2,213.7 L1352.3,213.6 L1355.4,213.6 L1358.5,213.5 L1361.6,213.5 L1364.6,213.4 L1367.7,213.4 L1370.8,213.3 L1373.9,213.3 L1377.0,213.3 L1380.0,213.2 L1383.1,213.2 L1386.2,213.1 L1389.3,213.1 L1392.4,213.1 L1395.4,213.0 L1398.5,213.0 L1401.6,213.0 L1404.7,212.9 L1407.8,212.9 L1410.8,212.8 L1413.9,212.8 L1417.0,212.8 L1420.1,212.7 L1423.2,212.7 L1426.2,212.7 L1429.3,212.6 L1432.4,212.6 L1435.5,212.6 L1438.6,212.5 L1441.6,212.5 L1444.7,212.4 L1447.8,212.4 L1450.9,212.4 L1454.0,212.3 L1457.0,212.3 L1460.1,212.3 L1463.2,212.2 L1466.3,212.2 L1469.4,212.2 L1472.4,212.1 L1475.5,212.1 L1478.6,212.0 L1481.7,212.0 L1484.8,212.0 L1487.8,211.9 L1490.9,211.9 L1494.0,211.9 L1497.1,211.8 L1500.2,211.8 L1503.2,211.8 L1506.3,211.7 L1509.4,211.7 L1512.5,211.7 L1515.6,211.6 L1518.6,211.6 L1521.7,211.5 L1524.8,211.5 L1527.9,211.5 L1531.0,211.4 L1534.0,211.4 L1537.1,211.4 L1540.2,211.3 L1543.3,211.3 L1546.4,211.3 L1549.4,211.2 L1552.5,211.2 L1555.6,211.1 L1558.7,211.1 L1561.8,211.1 L1564.8,211.0 L1567.9,211.0 L1571.0,211.0 L1574.1,210.9 L1577.2,210.9 L1580.2,210.9 L1583.3,210.8 L1586.4,210.8 L1589.5,210.8 L1592.6,210.7 L1595.6,210.7 L1598.7,210.6 L1601.8,210.6 L1604.9,210.6 L1608.0,210.5 L1611.0,210.5 L1614.1,210.5 L1617.2,210.4 L1620.3,210.4 L1623.4,210.4 L1626.4,210.3 L1629.5,210.3 L1632.6,210.2 L1635.7,210.2 L1638.8,210.2 L1641.8,210.1 L1644.9,210.1 L1648.0,210.1 L1651.1,210.0 L1654.2,210.0 L1657.2,210.0 L1660.3,209.9 L1663.4,209.9 L1666.5,209.8 L1669.6,209.8 L1672.6,209.8 L1675.7,209.7 L1678.8,209.7 L1681.9,209.7 L1685.0,209.6 L1688.0,209.6 L1691.1,209.6 L1694.2,209.5 L1697.3,209.5 L1700.4,209.5 L1703.4,209.4 L1706.5,209.4 L1709.6,209.3 L1712.7,209.3 L1715.8,209.3 L1718.8,209.2 L1721.9,209.2 L1725.0,209.2 L1728.1,209.1 L1731.2,209.1 L1734.2,209.1 L1737.3,209.0 L1740.4,209.0 L1743.5,208.9 L1746.6,208.9 L1749.6,208.9 L1752.7,208.8 L1755.8,208.8 L1758.9,208.8 L1762.0,208.7 L1765.0,208.7 L1768.1,208.7 L1771.2,208.6 L1774.3,208.6 L1777.4,208.6 L1780.4,208.5 L1783.5,208.5 L1786.6,208.4 L1789.7,208.4 L1792.8,208.4 L1795.8,208.3 L1798.9,208.3 L1802.0,208.3 L1805.1,208.2 L1808.2,208.2 L1811.2,208.2 L1814.3,208.1 L1817.4,208.1 L1820.5,208.0 L1823.6,208.0 L1826.6,208.0 L1829.7,207.9 L1832.8,207.9 L1835.9,207.9 L1839.0,207.8 L1842.0,207.8 L1845.1,207.8 L1848.2,207.7 L1851.3,207.7 L1854.4,207.7 L1857.4,207.6 L1860.5,207.6 L1863.6,207.5 L1866.7,207.5 L1869.8,207.5 L1872.8,207.4 L1875.9,207.4 L1879.0,207.4 L1882.1,207.3 L1885.2,207.3 L1888.2,207.3 L1891.3,207.2 L1894.4,207.2 L1897.5,207.1 L1900.6,207.1 L1903.6,207.1 L1906.7,207.0 L1909.8,207.0 L1912.9,207.0 L1916.0,206.9 L1919.0,206.9 L1919.0,243.5 L145.0,243.5 Z" fill="#99FF00" fill-opacity="0.3" stroke="#99FF00" stroke-width="2" stroke-opacity="1" stroke-linejoin="round" opacity="0.3"/>
<g transform="translate(1227.715 198.521) scale(15.80000)"><path transform="scale(0.7500 0.7500)" d="M 0.5445 0.0735 c -0.0855 0 -0.156 0.168 -0.156 0.267 c 0 0.033 0.0135 0.057 0.0465 0.057 c 0.0255 0 0.0525 -0.018 0.0705 -0.042 c 0.036 -0.0495 0.0765 -0.177 0.0765 -0.2325 c 0 -0.027 -0.0105 -0.0495 -0.0375 -0.0495 z M 0.3 0.0735 c -0.078 0 -0.066 0.1845 -0.1515 0.1845 c -0.018 0 -0.0315 -0.009 -0.0315 -0.027 c 0 -0.006 0.0015 -0.012 0.0045 -0.0195 c 0.045 -0.102 0.1125 -0.2115 0.204 -0.2115 c 0.0495 0 0.0795 0.0345 0.09 0.078 c 0.0435 -0.0465 0.1005 -0.078 0.1545 -0.078 c 0.1035 0 0.1605 0.0735 0.1605 0.171 c 0 0.141 -0.123 0.285 -0.24 0.285 c -0.0405 0 -0.078 -0.0075 -0.1095 -0.0255 c -0.015 -0.009 -0.036 -0.0075 -0.0405 0.006 l -0.0255 0.0765 c -0.0045 0.012 -0.006 0.024 -0.006 0.0345 c 0 0.036 0.015 0.0435 0.048 0.0465 c 0.0195 0.0015 0.0285 0.0165 0.0285 0.0315 s -0.0105 0.0315 -0.03 0.0315 c -0.0525 0 -0.108 -0.0075 -0.162 -0.0075 c -0.0555 0 -0.111 0.0075 -0.1635 0.0075 c -0.0195 0 -0.03 -0.0165 -0.03 -0.0315 c 0 -0.0345 0.0435 -0.033 0.078 -0.0345 c 0.0375 -0.003 0.0735 -0.0225 0.0855 -0.0585 l 0.138 -0.408 c 0.0045 -0.0135 0.0105 -0.027 0.0105 -0.0375 c 0 -0.0075 -0.003 -0.0135 -0.012 -0.0135 z M 1.0908 0.0735 c -0.0855 0 -0.156 0.168 -0.156 0.267 c 0 0.033 0.0135 0.057 0.0465 0.057 c 0.0255 0 0.0525 -0.018 0.0705 -0.042 c 0.036 -0.0495 0.0765 -0.177 0.0765 -0.2325 c 0 -0.027 -0.0105 -0.0495 -0.0375 -0.0495 z M 0.8463 0.0735 c -0.078 0 -0.066 0.1845 -0.1515 0.1845 c -0.018 0 -0.0315 -0.009 -0.0315 -0.027 c 0 -0.006 0.0015 -0.012 0.0045 -0.0195 c 0.045 -0.102 0.1125 -0.2115 0.204 -0.2115 c 0.0495 0 0.0795 0.0345 0.09 0.078 c 0.0435 -0.0465 0.1005 -0.078 0.1545 -0.078 c 0.1035 0 0.1605 0.0735 0.1605 0.171 c 0 0.141 -0.123 0.285 -0.24 0.285 c -0.0405 0 -0.078 -0.0075 -0.1095 -0.0255 c -0.015 -0.009 -0.036 -0.0075 -0.0405 0.006 l -0.0255 0.0765 c -0.0045 0.012 -0.006 0.024 -0.006 0.0345 c 0 0.036 0.015 0.0435 0.048 0.0465 c 0.0195 0.0015 0.0285 0.0165 0.0285 0.0315 s -0.0105 0.0315 -0.03 0.0315 c -0.0525 0 -0.108 -0.0075 -0.162 -0.0075 c -0.0555 0 -0.111 0.0075 -0.1635 0.0075 c -0.0195 0 -0.03 -0.0165 -0.03 -0.0315 c 0 -0.0345 0.0435 -0.033 0.078 -0.0345 c 0.0375 -0.003 0.0735 -0.0225 0.0855 -0.0585 l 0.138 -0.408 c 0.0045 -0.0135 0.0105 -0.027 0.0105 -0.0375 c 0 -0.0075 -0.003 -0.0135 -0.012 -0.0135 z"/></g>
<g transform="translate(1223.064 195.266) scale(15.80000)"><path transform="scale(0.4300 0.4300)" d="M0.2 1.052C0.2 0.712 0.244 0.36 0.44 0.08C0.448 0.072 0.452 0.06 0.452 0.052C0.452 0.024 0.428 0 0.4 0C0.384 0 0.372 0.008 0.36 0.024C0.148 0.328 0 0.68 0 1.052C0 1.424 0.148 1.776 0.36 2.08C0.372 2.096 0.384 2.104 0.4 2.104C0.428 2.104 0.452 2.08 0.452 2.052C0.452 2.044 0.448 2.032 0.44 2.024C0.244 1.744 0.2 1.392 0.2 1.052Z"/></g>
<g transform="translate(1244.425 195.266) scale(15.80000)"><path transform="scale(0.4300 0.4300)" d="M0.252 1.052C0.252 1.392 0.208 1.744 0.012 2.024C0.004 2.032 0 2.044 0 2.052C0 2.08 0.024 2.104 0.052 2.104C0.068 2.104 0.08 2.096 0.092 2.08C0.304 1.776 0.452 1.424 0.452 1.052C0.452 0.68 0.304 0.328 0.092 0.024C0.08 0.008 0.068 0 0.052 0C0.024 0 0 0.024 0 0.052C0 0.06 0.004 0.072 0.012 0.08C0.208 0.36 0.252 0.712 0.252 1.052Z"/></g>
<g transform="translate(534.308 83.256) scale(15.80000)"><path d="M 0.992 0.24 c 0 -0.0736 -0.0608 -0.128 -0.128 -0.128 c -0.0128 0 -0.0256 0.0032 -0.0384 0.0064 c -0.096 0.0256 -0.24 0.1216 -0.3552 0.1952 s -0.2592 0.1664 -0.3232 0.2432 c -0.0224 0.0256 -0.032 0.0544 -0.032 0.0864 c 0 0.0736 0.0608 0.128 0.128 0.128 c 0.0128 0 0.0256 -0.0032 0.0384 -0.0064 c 0.096 -0.0256 0.24 -0.1216 0.3552 -0.1952 s 0.2592 -0.1664 0.3232 -0.2432 c 0.0224 -0.0256 0.032 -0.0544 0.032 -0.0864 z M 0.8192 0 c 0.16 0 0.288 0.0704 0.288 0.2464 c 0 0.0576 -0.016 0.1184 -0.032 0.176 c -0.0352 0.1216 -0.096 0.2368 -0.2016 0.3072 c -0.1696 0.112 -0.3552 0.1536 -0.5856 0.1536 c -0.16 0 -0.288 -0.0704 -0.288 -0.2464 c 0 -0.0576 0.016 -0.1184 0.032 -0.176 c 0.0352 -0.1216 0.096 -0.2368 0.2016 -0.3072 c 0.1696 -0.1152 0.3552 -0.1536 0.5856 -0.1536 z"/></g>
<text x="551.8" y="73.8" font-size="15.4" font-family="'Crimson Pro Light', serif" text-anchor="end" xml:space="preserve" fill="#111">+2</text>
<text x="551.8" y="58.0" font-size="15.4" font-family="'Crimson Pro Light', serif" text-anchor="end" xml:space="preserve" fill="#111">12 (C2)</text>
<line x1="558.91" y1="16.0" x2="558.91" y2="243.5" stroke="#333" stroke-width="1.5" stroke-opacity="0.85" stroke-dasharray="5,4"/>
</g>
<g class="sysgrp sysgrp-bracket" fill="#111">
<rect x="51.84" y="98.13" width="7.11" height="298.67"/>
<g transform="translate(51.839 77.104) scale(15.80000)"><path d="M0 1.555H0.3C0.992 1.555 1.456 0.675 1.852 0.099C1.896 0.031 1.792 -0.041 1.748 0.027C1.384 0.563 0.936 1.107 0.3 1.107H0.1C0.044 1.107 0 1.151 0 1.207Z"/></g>
<g transform="translate(51.839 393.262) scale(15.80000)"><path d="M0 0V0.348C0 0.404 0.044 0.448 0.1 0.448H0.3C0.936 0.448 1.384 0.992 1.748 1.528C1.792 1.596 1.896 1.524 1.852 1.456C1.456 0.88 0.992 0 0.3 0Z"/></g>
</g>
<g class="sysgrp sysgrp-bracket" fill="#111">
<rect x="51.84" y="569.07" width="7.11" height="298.67"/>
<g transform="translate(51.839 548.039) scale(15.80000)"><path d="M0 1.555H0.3C0.992 1.555 1.456 0.675 1.852 0.099C1.896 0.031 1.792 -0.041 1.748 0.027C1.384 0.563 0.936 1.107 0.3 1.107H0.1C0.044 1.107 0 1.151 0 1.207Z"/></g>
<g transform="translate(51.839 864.196) scale(15.80000)"><path d="M0 0V0.348C0 0.404 0.044 0.448 0.1 0.448H0.3C0.936 0.448 1.384 0.992 1.748 1.528C1.792 1.596 1.896 1.524 1.852 1.456C1.456 0.88 0.992 0 0.3 0Z"/></g>
</g>
<g class="sysgrp sysgrp-bracket" fill="#111">
<rect x="51.84" y="1763.20" width="7.11" height="298.67"/>
<g transform="translate(51.839 1742.169) scale(15.80000)"><path d="M0 1.555H0.3C0.992 1.555 1.456 0.675 1.852 0.099C1.896 0.031 1.792 -0.041 1.748 0.027C1.384 0.563 0.936 1.107 0.3 1.107H0.1C0.044 1.107 0 1.151 0 1.207Z"/></g>
<g transform="translate(51.839 2058.327) scale(15.80000)"><path d="M0 0V0.348C0 0.404 0.044 0.448 0.1 0.448H0.3C0.936 0.448 1.384 0.992 1.748 1.528C1.792 1.596 1.896 1.524 1.852 1.456C1.456 0.88 0.992 0 0.3 0Z"/></g>
</g>
<g class="sysgrp sysgrp-brace" fill="#111"><g transform="translate(62.378 1166.134) scale(15.80000)"><path transform="scale(0.9957 0.9957)" d="M0.08 23.001C0.08 24.441 0.36 25.801 1.22 26.961C1.3 27.061 1.46 26.961 1.38 26.861C0.72 25.981 0.5 24.941 0.5 23.861C0.5 21.781 1.26 19.661 1.26 17.481C1.26 16.061 0.98 14.661 0.14 13.501C0.98 12.341 1.26 10.941 1.26 9.521C1.26 7.341 0.5 5.221 0.5 3.141C0.5 2.061 0.72 1.021 1.38 0.141C1.46 0.041 1.3 -0.059 1.22 0.041C0.36 1.201 0.08 2.561 0.08 4.001C0.08 6.221 0.88 8.381 0.88 10.501C0.88 11.561 0.66 12.581 0 13.461V13.501V13.541C0.66 14.421 0.88 15.441 0.88 16.501C0.88 18.621 0.08 20.781 0.08 23.001Z"/></g></g>
<g class="anim"><line x1="1047.4" y1="16.0" x2="1047.4" y2="2144.0" stroke="#FF15A0" stroke-width="3" opacity="1"/>
<rect x="1036.4" y="210.3" width="8" height="33.2" fill="#99FF00" opacity="0.3"/>
<rect x="1036.4" y="129.7" width="8" height="113.7" fill="none" stroke="#99FF00" stroke-width="1.5" opacity="0.8"/>
<circle cx="1025.4" cy="26.0" r="9.0" fill="none" stroke="#607D8B" stroke-width="1" opacity="0.5"/>
<g class="breath-pie" fill="#607D8B" opacity="0.75"><path d="M 1025.4 26.0 L 1030.8 18.8 A 9.0 9.0 0 0 1 1033.4 30.2 A 9.0 9.0 0 0 1 1022.6 34.5 A 9.0 9.0 0 0 1 1016.5 24.6 A 9.0 9.0 0 0 1 1025.4 17.0 Z"/></g>
<line class="breath-hand" x1="1025.4" y1="26.0" x2="1030.8" y2="18.8" stroke="#000" stroke-width="1" stroke-linecap="round"/></g></svg>