<svg xmlns="http://www.w3.org/2000/svg" width="671" height="319" viewBox="696.3 268.6 671.4 318.6"><rect x="696.3" y="268.6" width="671.4" height="318.6" fill="#fff"/>
<rect x="0" y="0" width="1920" height="2160" fill="#fff"/>
<g class="sys sys-p1" fill="#111">
<text x="4" y="441.4" font-size="17.4" font-family="'Crimson Pro Light', serif" fill="#8a8a8a">BCl</text>
<rect x="144.00" y="466.64" width="1776.00" height="1.58"/>
<rect x="144.00" y="450.84" width="1776.00" height="1.58"/>
<rect x="144.00" y="435.04" width="1776.00" height="1.58"/>
<rect x="144.00" y="419.24" width="1776.00" height="1.58"/>
<rect x="144.00" y="403.44" width="1776.00" height="1.58"/>
<g transform="translate(88.858 403.405) scale(15.80000)"><path d="M 2.28 1.552 c 0 -0.112 0.092 -0.204 0.204 -0.204 s 0.204 0.092 0.204 0.204 s -0.092 0.204 -0.204 0.204 s -0.204 -0.092 -0.204 -0.204 z M 2.28 0.552 c 0 -0.112 0.092 -0.204 0.204 -0.204 s 0.204 0.092 0.204 0.204 s -0.092 0.204 -0.204 0.204 s -0.204 -0.092 -0.204 -0.204 z M 0.98 0 c 0.688 0 1.172 0.352 1.172 1.004 c 0 1.052 -1.052 1.656 -2.064 2.084 c -0.012 0.012 -0.024 0.016 -0.036 0.016 c -0.028 0 -0.052 -0.024 -0.052 -0.052 c 0 -0.012 0.004 -0.024 0.016 -0.036 c 0.808 -0.472 1.648 -1.06 1.648 -1.972 c 0 -0.48 -0.252 -0.94 -0.684 -0.94 c -0.296 0 -0.516 0.216 -0.616 0.504 c 0.044 -0.02 0.088 -0.032 0.136 -0.032 c 0.22 0 0.4 0.18 0.4 0.4 c 0 0.232 -0.176 0.424 -0.4 0.424 c -0.24 0 -0.448 -0.188 -0.448 -0.424 c 0 -0.532 0.408 -0.976 0.928 -0.976 z"/></g>
<path class="gc-arc" d="M71.35 318.55 L72.46 318.55 L73.57 318.56 L74.67 318.57 L75.78 318.58 L76.89 318.61 L78.00 318.65 L79.11 318.70 L80.22 318.77 L81.33 318.85 L82.44 318.95 L83.54 319.08 L84.65 319.22 L85.76 319.39 L86.87 319.59 L87.98 319.81 L89.09 320.06 L90.20 320.33 L91.31 320.64 L92.42 320.99 L93.52 321.36 L94.63 321.77 L95.74 322.22 L96.85 322.71 L97.96 323.23 L99.07 323.80 L100.18 324.41 L101.29 325.06 L102.39 325.76 L103.50 326.50 L104.61 327.30 L105.72 328.14 L106.83 329.03 L107.94 329.97 L109.05 330.97 L110.16 332.01 L111.26 333.12 L112.37 334.28 L113.48 335.50 L114.59 336.78 L115.70 338.12 L116.81 339.52 L117.92 340.98 L119.03 342.51 L120.14 344.10 L121.24 345.76 L122.35 347.49 L123.46 349.29 L124.57 351.15 L125.68 353.09 L126.79 355.10 L127.90 357.19 L129.01 359.34 L130.11 361.58 L131.22 363.89 L132.33 366.28 L133.44 368.75 L134.55 371.30 L135.66 373.93 L136.77 376.65 L137.88 379.45 L138.98 382.33 L140.09 385.30 L141.20 388.36 L142.31 391.51 L143.42 394.75 L144.53 398.08 L145.64 401.50 L146.75 405.01 L147.86 408.62 L148.96 412.32 L150.07 416.12 L151.18 420.01 L152.29 424.01 L153.40 428.10 L154.51 432.30 L155.62 436.60 L156.73 441.00 L157.83 445.50 L158.94 450.11 L160.05 454.83 L161.16 459.65 L162.27 464.59 L163.38 469.63 L164.49 474.78 L165.60 480.04 L166.70 485.42 L167.81 490.91 L168.92 496.51 L170.03 502.23 L171.14 508.07 L172.25 514.03 L173.36 520.10 L174.47 526.29 L175.58 532.61 L176.68 539.05 L177.79 545.61 L178.90 552.29 L180.01 559.10 L181.12 566.04 L182.23 573.10 L182.97 567.44 L183.71 561.84 L184.45 556.31 L185.18 550.86 L185.92 545.47 L186.66 540.16 L187.40 534.91 L188.14 529.73 L188.88 524.63 L189.62 519.59 L190.36 514.62 L191.10 509.72 L191.84 504.89 L192.58 500.12 L193.32 495.43 L194.06 490.80 L194.79 486.24 L195.53 481.75 L196.27 477.33 L197.01 472.97 L197.75 468.68 L198.49 464.46 L199.23 460.30 L199.97 456.21 L200.71 452.18 L201.45 448.23 L202.19 444.33 L202.93 440.51 L203.66 436.74 L204.40 433.05 L205.14 429.42 L205.88 425.85 L206.62 422.35 L207.36 418.91 L208.10 415.54 L208.84 412.23 L209.58 408.98 L210.32 405.79 L211.06 402.67 L211.80 399.62 L212.54 396.62 L213.27 393.69 L214.01 390.82 L214.75 388.01 L215.49 385.26 L216.23 382.57 L216.97 379.95 L217.71 377.38 L218.45 374.88 L219.19 372.44 L219.93 370.05 L220.67 367.73 L221.41 365.46 L222.14 363.26 L222.88 361.11 L223.62 359.02 L224.36 356.99 L225.10 355.01 L225.84 353.10 L226.58 351.24 L227.32 349.44 L228.06 347.69 L228.80 346.00 L229.54 344.37 L230.28 342.79 L231.02 341.26 L231.75 339.80 L232.49 338.38 L233.23 337.02 L233.97 335.71 L234.71 334.46 L235.45 333.25 L236.19 332.10 L236.93 331.01 L237.67 329.96 L238.41 328.96 L239.15 328.01 L239.89 327.12 L240.62 326.27 L241.36 325.47 L242.10 324.72 L242.84 324.02 L243.58 323.36 L244.32 322.75 L245.06 322.18 L245.80 321.66 L246.54 321.19 L247.28 320.75 L248.02 320.36 L248.76 320.02 L249.50 319.71 L250.23 319.44 L250.97 319.21 L251.71 319.02 L252.45 318.86 L253.19 318.74 L253.93 318.65 L254.67 318.59 L255.41 318.56 L256.15 318.55" stroke="rgb(255, 21, 160)" stroke-width="3.00" fill="none"/>
<circle class="gc-impact" cx="182.23" cy="573.10" r="8.00" fill="rgb(255, 21, 160)"/>
<g transform="translate(155.007 366.739) scale(15.80000)"><path transform="scale(0.8440 0.8440)" d="M 0.6784 0 c 0.1888 0 0.3616 0.0992 0.3616 0.304 c 0 0.2272 -0.1664 0.384 -0.3168 0.4736 c -0.1088 0.0672 -0.2336 0.1056 -0.3616 0.1056 c -0.1888 0 -0.3616 -0.0992 -0.3616 -0.304 c 0 -0.2272 0.1696 -0.384 0.32 -0.4736 c 0.1088 -0.0672 0.2304 -0.1056 0.3584 -0.1056 z"/></g>
<rect x="151.54" y="387.64" width="20.80" height="1.58"/>
<rect x="151.54" y="371.84" width="20.80" height="1.58"/>
<rect x="154.85" y="374.44" width="2.05" height="146.52"/>
<g transform="translate(154.862 473.431) scale(15.80000)"><path d="M 0.064 2.188 c 0.364 -0.204 0.844 -0.524 0.844 -0.932 c 0 -0.096 -0.02 -0.192 -0.056 -0.28 c -0.316 0.356 -0.788 0.64 -0.788 1.128 v 0.084 z M 1.132 0.356 c 0 0.176 -0.064 0.328 -0.156 0.464 c 0.064 0.14 0.1 0.284 0.1 0.436 c 0 0.724 -1.012 1.028 -1.012 1.752 h -0.064 v -2 h 0.064 v 0.28 c 0.388 -0.196 0.896 -0.512 0.896 -0.932 c 0 -0.084 -0.02 -0.168 -0.052 -0.248 c -0.012 -0.064 0.04 -0.108 0.092 -0.108 c 0.12 0 0.132 0.252 0.132 0.356 z"/></g>
<circle cx="161.94" cy="361.21" r="3.16"/>
<g transform="translate(150.060 337.666) scale(15.80000)"><path d="M 0.06 0.148 c -0.032 -0.008 -0.06 -0.036 -0.06 -0.072 c 0 -0.04 0.036 -0.076 0.076 -0.076 c 0.008 0 0.012 0.004 0.02 0.004 l 1.348 0.344 c 0.032 0.008 0.06 0.036 0.06 0.072 s -0.028 0.064 -0.06 0.072 l -1.348 0.344 c -0.008 0 -0.012 0.004 -0.02 0.004 c -0.04 0 -0.076 -0.036 -0.076 -0.076 c 0 -0.036 0.028 -0.064 0.06 -0.072 l 0.824 -0.212 l 0.436 -0.06 l -0.436 -0.06 z"/></g>
<g transform="translate(155.775 318.224) scale(15.80000)"><path transform="scale(0.7070 0.7070)" d="M0.552 1.104C0.608 1.104 0.652 1.056 0.652 1V0.652H1C1.056 0.652 1.104 0.608 1.104 0.552C1.104 0.496 1.056 0.452 1 0.452H0.652V0.104C0.652 0.048 0.608 0 0.552 0C0.496 0 0.452 0.048 0.452 0.104V0.452H0.104C0.048 0.452 0 0.496 0 0.552C0 0.608 0.048 0.652 0.104 0.652H0.452V1C0.452 1.056 0.496 1.104 0.552 1.104Z"/></g>
<g transform="translate(149.081 295.780) scale(15.80000)"><path d="M 0.528 0.3585 l -0.0705 0.2295 c -0.045 0.1485 -0.1815 0.3825 -0.327 0.3825 c -0.072 0 -0.1305 -0.0585 -0.1305 -0.132 c 0 -0.0585 0.0255 -0.1155 0.078 -0.1155 c 0.036 0 0.066 0.0285 0.066 0.0645 c 0 0.045 -0.057 0.0375 -0.057 0.0825 c 0 0.015 0.0165 0.0165 0.0345 0.0165 h 0.009 c 0.063 0 0.093 -0.0675 0.1095 -0.1335 l 0.099 -0.3945 h -0.0555 c -0.024 0 -0.0435 -0.0195 -0.0435 -0.0435 s 0.0195 -0.0435 0.0435 -0.0435 h 0.0795 c 0.051 -0.138 0.1785 -0.2715 0.315 -0.2715 c 0.072 0 0.1305 0.06 0.1305 0.1335 c 0 0.0585 -0.0255 0.1155 -0.078 0.1155 c -0.036 0 -0.066 -0.03 -0.066 -0.066 c 0 -0.045 0.057 -0.0375 0.057 -0.0825 c 0 -0.015 -0.015 -0.015 -0.033 -0.015 h -0.0105 c -0.078 0 -0.102 0.1005 -0.1245 0.186 h 0.063 c 0.024 0 0.0435 0.0195 0.0435 0.0435 s -0.0195 0.0435 -0.0435 0.0435 h -0.0885 z M 0.9377 0.3585 l -0.0705 0.2295 c -0.045 0.1485 -0.1815 0.3825 -0.327 0.3825 c -0.072 0 -0.1305 -0.0585 -0.1305 -0.132 c 0 -0.0585 0.0255 -0.1155 0.078 -0.1155 c 0.036 0 0.066 0.0285 0.066 0.0645 c 0 0.045 -0.057 0.0375 -0.057 0.0825 c 0 0.015 0.0165 0.0165 0.0345 0.0165 h 0.009 c 0.063 0 0.093 -0.0675 0.1095 -0.1335 l 0.099 -0.3945 h -0.0555 c -0.024 0 -0.0435 -0.0195 -0.0435 -0.0435 s 0.0195 -0.0435 0.0435 -0.0435 h 0.0795 c 0.051 -0.138 0.1785 -0.2715 0.315 -0.2715 c 0.072 0 0.1305 0.06 0.1305 0.1335 c 0 0.0585 -0.0255 0.1155 -0.078 0.1155 c -0.036 0 -0.066 -0.03 -0.066 -0.066 c 0 -0.045 0.057 -0.0375 0.057 -0.0825 c 0 -0.015 -0.015 -0.015 -0.033 -0.015 h -0.0105 c -0.078 0 -0.102 0.1005 -0.1245 0.186 h 0.063 c 0.024 0 0.0435 0.0195 0.0435 0.0435 s -0.0195 0.0435 -0.0435 0.0435 h -0.0885 z M 1.3474 0.3585 l -0.0705 0.2295 c -0.045 0.1485 -0.1815 0.3825 -0.327 0.3825 c -0.072 0 -0.1305 -0.0585 -0.1305 -0.132 c 0 -0.0585 0.0255 -0.1155 0.078 -0.1155 c 0.036 0 0.066 0.0285 0.066 0.0645 c 0 0.045 -0.057 0.0375 -0.057 0.0825 c 0 0.015 0.0165 0.0165 0.0345 0.0165 h 0.009 c 0.063 0 0.093 -0.0675 0.1095 -0.1335 l 0.099 -0.3945 h -0.0555 c -0.024 0 -0.0435 -0.0195 -0.0435 -0.0435 s 0.0195 -0.0435 0.0435 -0.0435 h 0.0795 c 0.051 -0.138 0.1785 -0.2715 0.315 -0.2715 c 0.072 0 0.1305 0.06 0.1305 0.1335 c 0 0.0585 -0.0255 0.1155 -0.078 0.1155 c -0.036 0 -0.066 -0.03 -0.066 -0.066 c 0 -0.045 0.057 -0.0375 0.057 -0.0825 c 0 -0.015 -0.015 -0.015 -0.033 -0.015 h -0.0105 c -0.078 0 -0.102 0.1005 -0.1245 0.186 h 0.063 c 0.024 0 0.0435 0.0195 0.0435 0.0435 s -0.0195 0.0435 -0.0435 0.0435 h -0.0885 z"/></g>
<text x="161.9" y="285.8" font-size="14.4" font-family="'Crimson Pro Light', serif" text-anchor="middle" xml:space="preserve" fill="#000">(slap)</text>
<g transform="translate(808.840 460.450) scale(15.80000)"><path d="M 0.992 0.24 c 0 -0.0736 -0.0608 -0.128 -0.128 -0.128 c -0.0128 0 -0.0256 0.0032 -0.0384 0.0064 c -0.096 0.0256 -0.24 0.1216 -0.3552 0.1952 s -0.2592 0.1664 -0.3232 0.2432 c -0.0224 0.0256 -0.032 0.0544 -0.032 0.0864 c 0 0.0736 0.0608 0.128 0.128 0.128 c 0.0128 0 0.0256 -0.0032 0.0384 -0.0064 c 0.096 -0.0256 0.24 -0.1216 0.3552 -0.1952 s 0.2592 -0.1664 0.3232 -0.2432 c 0.0224 -0.0256 0.032 -0.0544 0.032 -0.0864 z M 0.8192 0 c 0.16 0 0.288 0.0704 0.288 0.2464 c 0 0.0576 -0.016 0.1184 -0.032 0.176 c -0.0352 0.1216 -0.096 0.2368 -0.2016 0.3072 c -0.1696 0.112 -0.3552 0.1536 -0.5856 0.1536 c -0.16 0 -0.288 -0.0704 -0.288 -0.2464 c 0 -0.0576 0.016 -0.1184 0.032 -0.176 c 0.0352 -0.1216 0.096 -0.2368 0.2016 -0.3072 c 0.1696 -0.1152 0.3552 -0.1536 0.5856 -0.1536 z"/></g>
<g transform="translate(831.074 449.055) scale(15.80000)"><path transform="scale(0.6300 0.6300)" d="M0.2 1.052C0.2 0.712 0.244 0.36 0.44 0.08C0.448 0.072 0.452 0.06 0.452 0.052C0.452 0.024 0.428 0 0.4 0C0.384 0 0.372 0.008 0.36 0.024C0.148 0.328 0 0.68 0 1.052C0 1.424 0.148 1.776 0.36 2.08C0.372 2.096 0.384 2.104 0.4 2.104C0.428 2.104 0.452 2.08 0.452 2.052C0.452 2.044 0.448 2.032 0.44 2.024C0.244 1.744 0.2 1.392 0.2 1.052Z"/></g>
<g transform="translate(842.209 448.487) scale(15.80000)"><path transform="scale(0.7940 0.7940)" d="M 0.144 0.83 l -0.004 0.11 v 0.02 c 0 0.042 0.004 0.084 0.01 0.124 c 0.08 -0.076 0.166 -0.158 0.166 -0.268 c 0 -0.06 -0.026 -0.122 -0.078 -0.122 c -0.062 0 -0.092 0.068 -0.094 0.136 z M 0.032 1.178 l -0.032 -1.16 c 0.022 -0.012 0.046 -0.018 0.07 -0.018 s 0.048 0.006 0.07 0.018 l -0.018 0.66 c 0.05 -0.058 0.122 -0.092 0.198 -0.092 c 0.098 0 0.15 0.108 0.15 0.216 c 0 0.15 -0.15 0.234 -0.258 0.338 c -0.04 0.04 -0.056 0.114 -0.116 0.114 c -0.038 0 -0.064 -0.036 -0.064 -0.076 z"/></g>
<g transform="translate(851.266 453.988) scale(15.80000)"><path transform="scale(0.7940 0.7940)" d="M 0.6784 0 c 0.1888 0 0.3616 0.0992 0.3616 0.304 c 0 0.2272 -0.1664 0.384 -0.3168 0.4736 c -0.1088 0.0672 -0.2336 0.1056 -0.3616 0.1056 c -0.1888 0 -0.3616 -0.0992 -0.3616 -0.304 c 0 -0.2272 0.1696 -0.384 0.32 -0.4736 c 0.1088 -0.0672 0.2304 -0.1056 0.3584 -0.1056 z"/></g>
<g transform="translate(870.949 449.055) scale(15.80000)"><path transform="scale(0.6300 0.6300)" d="M0.252 1.052C0.252 1.392 0.208 1.744 0.012 2.024C0.004 2.032 0 2.044 0 2.052C0 2.08 0.024 2.104 0.052 2.104C0.068 2.104 0.08 2.096 0.092 2.08C0.304 1.776 0.452 1.424 0.452 1.052C0.452 0.68 0.304 0.328 0.092 0.024C0.08 0.008 0.068 0 0.052 0C0.024 0 0 0.024 0 0.052C0 0.06 0.004 0.072 0.012 0.08C0.208 0.36 0.252 0.712 0.252 1.052Z"/></g>
<g transform="translate(808.302 481.514) scale(15.80000)"><path d="M 0.231 0.3615 c 0 -0.009 0.009 -0.018 0.009 -0.027 c 0 -0.015 -0.012 -0.0285 -0.0285 -0.0285 c -0.0315 0 -0.063 0.0165 -0.063 0.045 c 0 0.024 0.024 0.039 0.0465 0.0495 c 0.051 0.0255 0.1035 0.0585 0.1035 0.114 c 0 0.099 -0.0825 0.1755 -0.183 0.1755 c -0.0645 0 -0.1155 -0.054 -0.1155 -0.12 c 0 -0.0315 0.018 -0.063 0.0465 -0.063 c 0.027 0 0.048 0.0225 0.048 0.0495 c 0 0.0195 -0.033 0.024 -0.033 0.0435 s 0.0225 0.0285 0.0435 0.0285 c 0.0525 0 0.1035 -0.0255 0.1035 -0.072 c 0 -0.0825 -0.1515 -0.081 -0.1515 -0.1635 c 0 -0.0765 0.06 -0.141 0.135 -0.141 c 0.09 0 0.1275 0.054 0.1275 0.096 c 0 0.0255 -0.015 0.0465 -0.0405 0.0465 c -0.027 0 -0.048 -0.0165 -0.048 -0.033 z M 0.6433 0.3585 l -0.0705 0.2295 c -0.045 0.1485 -0.1815 0.3825 -0.327 0.3825 c -0.072 0 -0.1305 -0.0585 -0.1305 -0.132 c 0 -0.0585 0.0255 -0.1155 0.078 -0.1155 c 0.036 0 0.066 0.0285 0.066 0.0645 c 0 0.045 -0.057 0.0375 -0.057 0.0825 c 0 0.015 0.0165 0.0165 0.0345 0.0165 h 0.009 c 0.063 0 0.093 -0.0675 0.1095 -0.1335 l 0.099 -0.3945 h -0.0555 c -0.024 0 -0.0435 -0.0195 -0.0435 -0.0435 s 0.0195 -0.0435 0.0435 -0.0435 h 0.0795 c 0.051 -0.138 0.1785 -0.2715 0.315 -0.2715 c 0.072 0 0.1305 0.06 0.1305 0.1335 c 0 0.0585 -0.0255 0.1155 -0.078 0.1155 c -0.036 0 -0.066 -0.03 -0.066 -0.066 c 0 -0.045 0.057 -0.0375 0.057 -0.0825 c 0 -0.015 -0.015 -0.015 -0.033 -0.015 h -0.0105 c -0.078 0 -0.102 0.1005 -0.1245 0.186 h 0.063 c 0.024 0 0.0435 0.0195 0.0435 0.0435 s -0.0195 0.0435 -0.0435 0.0435 h -0.0885 z M 0.9383 0.402 c -0.036 0 -0.075 0.0105 -0.1065 0.0105 c -0.0135 0 -0.0225 -0.0045 -0.0225 -0.018 c 0 -0.045 0.042 -0.105 0.0855 -0.105 c 0.051 0 0.09 0.051 0.141 0.051 c 0.0195 0 0.036 -0.009 0.0495 -0.0225 c 0.0075 -0.006 0.0135 -0.0105 0.021 -0.0105 c 0.0165 0 0.0315 0.0165 0.0315 0.033 c 0 0.0075 -0.003 0.015 -0.0105 0.0225 l -0.228 0.2205 c 0.039 0.0075 0.0705 0.045 0.111 0.045 c 0.0495 0 0.0885 -0.0345 0.0885 -0.0735 c 0 -0.0105 -0.006 -0.0225 -0.006 -0.033 c 0 -0.018 0.015 -0.03 0.0315 -0.03 c 0.0375 0 0.051 0.0825 0.051 0.1155 c 0 0.0945 -0.105 0.1455 -0.21 0.1455 c -0.0525 0 -0.057 -0.0885 -0.1095 -0.0885 c -0.021 0 -0.042 0.003 -0.057 0.0165 c -0.0075 0.006 -0.0135 0.009 -0.021 0.009 c -0.0165 0 -0.0315 -0.015 -0.0315 -0.0315 c 0 -0.0075 0.0015 -0.015 0.009 -0.0225 l 0.2415 -0.234 h -0.0045 h -0.054 z"/></g>
<g transform="translate(806.798 377.268) scale(15.80000)"><path transform="scale(0.5700 0.5700)" d="M0.1 1.252C0.1 1.112 0.236 1.048 0.364 1.048C0.488 1.048 0.596 1.096 0.688 1.164L0.668 1.26C0.544 1.316 0.412 1.372 0.256 1.372C0.168 1.372 0.1 1.34 0.1 1.252ZM1.184 1.744C1.184 1.576 1.092 1.432 0.984 1.308L1.012 1.184L1.328 1.008C1.36 0.992 1.396 0.98 1.424 0.98C1.492 0.98 1.54 1.02 1.54 1.084V1.112L1.324 2.192C1.38 2.164 1.44 2.148 1.496 2.148C1.552 2.148 1.604 2.164 1.648 2.192L1.864 1.112C1.884 1.004 1.988 0.94 2.084 0.94C2.144 0.94 2.204 0.964 2.236 1.02H2.224C2.1 1.02 1.984 1.112 1.984 1.276C1.984 1.38 2.036 1.468 2.136 1.468C2.288 1.468 2.396 1.288 2.396 1.108C2.396 0.92 2.264 0.832 2.12 0.832C2.02 0.832 1.916 0.872 1.844 0.952C1.8 0.88 1.704 0.84 1.588 0.84C1.496 0.84 1.396 0.864 1.292 0.92L1.036 1.064L1.248 0C1.168 0.076 1.064 0.14 0.976 0.14C0.948 0.14 0.92 0.132 0.896 0.12L0.712 1.048C0.616 0.988 0.508 0.948 0.384 0.948C0.196 0.948 0 1.064 0 1.268C0 1.4 0.1 1.472 0.24 1.472C0.396 1.472 0.52 1.424 0.644 1.372L0.584 1.676C0.572 1.728 0.568 1.784 0.568 1.84C0.568 2.028 0.636 2.204 0.792 2.204C0.996 2.204 1.184 1.988 1.184 1.744ZM0.944 2.004C0.9 2.004 0.884 1.956 0.884 1.888C0.884 1.78 0.92 1.628 0.936 1.556L0.956 1.448C1.028 1.54 1.084 1.64 1.084 1.76C1.084 1.868 1.036 2.004 0.944 2.004Z"/></g>
<path d="M802.8,401.4 L805.9,401.9 L809.0,402.4 L812.1,402.9 L815.2,403.4 L818.2,403.9 L821.3,404.5 L824.4,405.0 L827.5,405.5 L830.5,406.0 L833.6,406.5 L836.7,407.0 L839.8,407.5 L842.8,408.0 L845.9,408.5 L849.0,409.0 L852.1,409.5 L855.2,410.0 L858.2,410.6 L861.3,411.1 L864.4,411.6 L867.5,412.1 L870.5,412.6 L873.6,413.1 L876.7,413.6 L879.8,414.1 L882.8,414.6 L885.9,415.2 L889.0,415.7 L892.1,416.2 L895.1,416.7 L898.2,417.2 L901.3,417.7 L904.4,418.2 L907.5,418.7 L910.5,419.2 L913.6,419.7 L916.7,420.2 L919.8,420.8 L922.8,421.3 L925.9,421.8 L929.0,422.3 L932.1,422.8 L935.1,423.3 L938.2,423.8 L941.3,424.3 L944.4,424.8 L947.5,425.3 L950.5,425.9 L953.6,426.4 L956.7,426.9 L959.8,427.4 L962.8,427.9 L965.9,428.4 L969.0,428.9 L972.1,429.4 L975.1,429.9 L978.2,430.5 L981.3,430.9 L984.4,431.5 L987.4,432.0 L990.5,432.5 L993.6,433.0 L996.7,433.5 L999.8,434.0 L1002.8,434.5 L1005.9,435.0 L1009.0,435.5 L1012.1,436.1 L1015.1,436.6 L1018.2,437.1 L1021.3,437.6 L1024.4,438.1 L1027.4,438.6 L1030.5,439.1 L1033.6,439.6 L1036.7,440.1 L1039.8,440.6 L1042.8,441.2 L1045.9,441.7 L1049.0,442.2 L1052.1,442.7 L1055.1,443.2 L1058.2,443.7 L1061.3,444.2 L1064.4,444.7 L1067.4,445.2 L1070.5,445.7 L1073.6,446.2 L1076.7,446.8 L1079.7,447.3 L1082.8,447.8 L1085.9,448.3 L1089.0,448.8 L1092.1,449.3 L1095.1,449.8 L1098.2,450.3 L1101.3,450.8 L1104.4,451.4 L1107.4,451.8 L1110.5,452.4 L1113.6,452.9 L1116.7,453.4 L1119.7,453.9 L1122.8,454.4 L1125.9,454.9 L1129.0,455.4 L1132.1,455.9 L1135.1,456.4 L1138.2,457.0 L1141.3,457.5 L1144.4,458.0 L1147.4,458.5 L1150.5,459.0 L1153.6,459.5 L1156.7,460.0 L1159.7,460.5 L1162.8,461.0 L1165.9,461.5 L1169.0,462.1 L1172.0,462.5 L1175.1,463.1 L1178.2,463.6 L1181.3,464.1 L1184.4,464.6 L1187.4,465.1 L1190.5,465.6 L1193.6,466.1 L1196.7,466.7 L1199.7,467.1 L1202.8,467.7 L1205.9,468.2 L1209.0,468.7 L1212.0,469.2 L1215.1,469.7 L1218.2,470.2 L1221.3,470.7 L1224.4,471.2 L1227.4,471.7 L1230.5,472.2 L1233.6,472.8 L1236.7,473.3 L1239.7,473.8 L1242.8,474.3 L1245.9,474.8 L1249.0,475.3 L1252.0,475.8 L1255.1,476.3 L1258.2,476.8 L1261.3,477.3 L1264.3,477.8 L1267.4,478.4 L1270.5,478.9 L1273.6,479.4 L1276.7,479.9 L1279.7,480.4 L1282.8,480.9 L1285.9,481.4 L1289.0,481.9 L1292.0,482.4 L1295.1,483.0 L1298.2,483.5 L1301.3,484.0 L1304.3,484.5 L1307.4,485.0 L1310.5,485.5 L1313.6,486.0 L1316.7,486.5 L1319.7,487.0 L1322.8,487.5 L1325.9,488.0 L1329.0,488.6 L1332.0,489.1 L1335.1,489.6 L1338.2,490.1 L1341.3,490.6 L1344.3,491.1 L1347.4,491.6 L1350.5,492.1 L1353.6,492.6 L1356.6,493.1 L1359.7,493.7 L1362.8,494.2 L1365.9,494.7 L1369.0,495.2 L1372.0,495.7 L1375.1,496.2 L1378.2,496.7 L1381.3,497.2 L1384.3,497.7 L1387.4,498.3 L1390.5,498.7 L1393.6,499.3 L1396.6,499.8 L1399.7,500.3 L1402.8,500.8 L1405.9,501.3 L1409.0,501.8 L1412.0,502.3 L1415.1,502.8 L1418.2,503.3 L1421.3,503.9 L1424.3,504.4 L1427.4,504.9 L1430.5,505.4 L1433.6,505.9 L1436.6,506.4 L1439.7,506.9 L1442.8,507.4 L1445.9,507.9 L1448.9,508.4 L1452.0,509.0 L1455.1,509.5 L1458.2,510.0 L1461.3,510.5 L1464.3,511.0 L1467.4,511.5 L1470.5,512.0 L1473.6,512.5 L1476.6,513.0 L1479.7,513.5 L1482.8,514.0 L1485.9,514.6 L1488.9,515.1 L1492.0,515.6 L1495.1,516.1 L1498.2,516.6 L1501.3,517.1 L1504.3,517.6 L1507.4,518.1 L1510.5,518.6 L1513.6,519.2 L1516.6,519.7 L1519.7,520.2 L1522.8,520.7 L1525.9,521.2 L1528.9,521.7 L1532.0,522.2 L1535.1,522.7 L1538.2,523.2 L1541.2,523.7 L1544.3,524.2 L1547.4,524.8 L1550.5,525.3 L1553.6,525.8 L1556.6,526.3 L1559.7,526.8 L1562.8,527.3 L1565.9,527.8 L1568.9,528.3 L1572.0,528.8 L1575.1,529.3 L1578.2,529.9 L1581.2,530.4 L1584.3,530.9 L1587.4,531.4 L1590.5,531.9 L1593.6,532.4 L1596.6,532.9 L1599.7,533.4 L1602.8,533.9 L1605.9,534.5 L1608.9,534.9 L1612.0,535.5 L1615.1,536.0 L1618.2,536.5 L1621.2,537.0 L1624.3,537.5 L1627.4,538.0 L1630.5,538.5 L1633.5,539.0 L1636.6,539.5 L1639.7,540.0 L1642.8,540.6 L1645.9,540.8 L1648.9,540.9 L1652.0,541.0 L1655.1,541.1 L1658.2,541.1 L1661.2,541.2 L1664.3,541.3 L1667.4,541.4 L1670.5,541.5 L1673.5,541.6 L1676.6,541.7 L1679.7,541.8 L1682.8,541.9 L1685.9,541.9 L1688.9,542.0 L1692.0,542.1 L1695.1,542.2 L1698.2,542.3 L1701.2,542.4 L1704.3,542.5 L1707.4,542.6 L1710.5,542.7 L1713.5,542.8 L1716.6,542.9 L1719.7,543.0 L1722.8,543.1 L1725.8,543.1 L1728.9,543.2 L1732.0,543.3 L1735.1,543.4 L1738.2,543.5 L1741.2,543.6 L1744.3,543.7 L1747.4,543.8 L1750.5,543.9 L1753.5,543.9 L1756.6,544.0 L1759.7,544.1 L1762.8,544.2 L1765.8,544.3 L1768.9,544.4 L1772.0,544.5 L1775.1,544.6 L1778.2,544.7 L1781.2,544.8 L1784.3,544.9 L1787.4,545.0 L1790.5,545.1 L1793.5,545.1 L1796.6,545.2 L1799.7,545.3 L1802.8,545.4 L1805.8,545.5 L1808.9,545.6 L1812.0,545.2 L1815.1,543.9 L1818.1,542.7 L1821.2,541.4 L1824.3,540.1 L1827.4,538.9 L1830.5,537.6 L1833.5,536.4 L1836.6,535.1 L1839.7,533.9 L1842.8,532.6 L1845.8,531.4 L1848.9,530.1 L1852.0,528.8 L1855.1,527.6 L1858.1,526.3 L1861.2,525.1 L1864.3,523.8 L1867.4,522.6 L1870.5,521.3 L1873.5,520.0 L1876.6,518.8 L1879.7,517.5 L1882.8,516.3 L1885.8,515.0 L1888.9,513.8 L1892.0,512.5 L1895.1,511.3 L1898.1,510.0 L1901.2,508.7 L1904.3,507.5 L1907.4,506.2 L1910.4,505.0 L1913.5,503.7 L1916.6,502.5 L1919.7,501.2 L1919.7,573.1 L802.8,573.1 Z" fill="#99FF00" fill-opacity="0.3" stroke="#99FF00" stroke-width="2" stroke-opacity="1" stroke-linejoin="round" opacity="0.3"/>
<line x1="182.23" y1="318.6" x2="182.23" y2="573.1" stroke="#333" stroke-width="1.5" stroke-opacity="0.85" stroke-dasharray="5,4"/>
<line x1="802.85" y1="318.6" x2="802.85" y2="573.1" stroke="#333" stroke-width="1.5" stroke-opacity="0.85" stroke-dasharray="5,4"/>
</g>
<g class="sysgrp sysgrp-bracket" fill="#111">
<rect x="51.84" y="121.68" width="7.11" height="345.75"/>
<g transform="translate(51.839 100.646) scale(15.80000)"><path d="M0 1.555H0.3C0.992 1.555 1.456 0.675 1.852 0.099C1.896 0.031 1.792 -0.041 1.748 0.027C1.384 0.563 0.936 1.107 0.3 1.107H0.1C0.044 1.107 0 1.151 0 1.207Z"/></g>
<g transform="translate(51.839 463.888) scale(15.80000)"><path d="M0 0V0.348C0 0.404 0.044 0.448 0.1 0.448H0.3C0.936 0.448 1.384 0.992 1.748 1.528C1.792 1.596 1.896 1.524 1.852 1.456C1.456 0.88 0.992 0 0.3 0Z"/></g>
</g>
<g class="sysgrp sysgrp-brace" fill="#111"><g transform="translate(69.570 686.849) scale(15.80000)"><path transform="scale(0.9976 0.9976)" d="M0.084 11.901C0.084 12.693 0.276 13.437 0.828 14.013C0.888 14.073 0.984 13.989 0.924 13.929C0.516 13.497 0.384 12.969 0.384 12.393C0.384 11.337 0.816 10.245 0.816 9.129C0.816 8.349 0.624 7.593 0.096 7.017C0.624 6.441 0.816 5.685 0.816 4.905C0.816 3.789 0.384 2.697 0.384 1.641C0.384 1.065 0.516 0.537 0.924 0.105C0.984 0.045 0.888 -0.039 0.828 0.021C0.276 0.597 0.084 1.341 0.084 2.133C0.084 3.273 0.54 4.389 0.54 5.469C0.54 6.033 0.42 6.561 0.012 6.981C0 6.993 0 7.005 0 7.017C0 7.029 0 7.041 0.012 7.053C0.42 7.473 0.54 8.001 0.54 8.565C0.54 9.645 0.084 10.761 0.084 11.901Z"/></g></g>
<g class="sysgrp sysgrp-bracket" fill="#111">
<rect x="51.84" y="1127.47" width="7.11" height="910.85"/>
<g transform="translate(51.839 1106.441) scale(15.80000)"><path d="M0 1.555H0.3C0.992 1.555 1.456 0.675 1.852 0.099C1.896 0.031 1.792 -0.041 1.748 0.027C1.384 0.563 0.936 1.107 0.3 1.107H0.1C0.044 1.107 0 1.151 0 1.207Z"/></g>
<g transform="translate(51.839 2034.785) scale(15.80000)"><path d="M0 0V0.348C0 0.404 0.044 0.448 0.1 0.448H0.3C0.936 0.448 1.384 0.992 1.748 1.528C1.792 1.596 1.896 1.524 1.852 1.456C1.456 0.88 0.992 0 0.3 0Z"/></g>
</g>
<g class="anim"><line x1="1044.3" y1="16.0" x2="1044.3" y2="2144.0" stroke="#FF15A0" stroke-width="3" opacity="1"/>
<rect x="1033.3" y="441.4" width="8" height="131.7" fill="#99FF00" opacity="0.3"/>
<rect x="1033.3" y="298.6" width="8" height="274.6" fill="none" stroke="#99FF00" stroke-width="1.5" opacity="0.8"/></g></svg>