<svg xmlns="http://www.w3.org/2000/svg" width="1756" height="263" viewBox="154.2 456.9 1755.6 263.5"><rect x="154.2" y="456.9" width="1755.6" height="263.5" fill="#fff"/>
<rect x="0" y="0" width="1920" height="2160" fill="#fff"/>
<g class="sys sys-p2" fill="#111">
<text x="4" y="606.2" font-size="17.4" font-family="'Crimson Pro Light', serif" fill="#8a8a8a">Hn</text>
<rect x="144.00" y="631.48" width="1776.00" height="1.58"/>
<rect x="144.00" y="615.68" width="1776.00" height="1.58"/>
<rect x="144.00" y="599.88" width="1776.00" height="1.58"/>
<rect x="144.00" y="584.08" width="1776.00" height="1.58"/>
<rect x="144.00" y="568.28" width="1776.00" height="1.58"/>
<g transform="translate(91.639 540.960) scale(15.80000)"><path d="M1.056 7.319 1.06 7.147H1.044C0.848 7.147 0.68 7.043 0.576 6.887C0.616 6.903 0.656 6.911 0.7 6.911C0.908 6.911 1.08 6.739 1.08 6.531C1.08 6.307 0.916 6.119 0.7 6.119C0.464 6.119 0.252 6.299 0.252 6.531C0.252 6.967 0.6 7.319 1.032 7.319ZM1.836 5.591C1.78 5.099 1.692 4.639 1.596 4.175C2.024 4.219 2.288 4.575 2.288 4.935C2.288 5.211 2.108 5.495 1.836 5.591ZM0.288 4.667C0.288 4.027 0.712 3.539 1.14 3.055C1.208 3.287 1.268 3.523 1.324 3.755C0.916 3.847 0.684 4.191 0.684 4.543C0.684 4.823 0.832 5.111 1.152 5.283C1.164 5.287 1.176 5.291 1.188 5.291C1.236 5.291 1.276 5.247 1.276 5.203C1.276 5.183 1.268 5.163 1.248 5.143C1.024 5.015 0.924 4.827 0.924 4.651C0.924 4.419 1.104 4.207 1.42 4.175C1.524 4.651 1.616 5.123 1.672 5.631C1.564 5.647 1.456 5.655 1.344 5.655C0.804 5.655 0.288 5.207 0.288 4.667ZM1.332 5.827C1.456 5.827 1.572 5.815 1.688 5.795C1.7 5.919 1.704 6.039 1.704 6.163C1.704 6.235 1.7 6.311 1.696 6.383C1.672 6.779 1.432 7.139 1.06 7.147L1.056 7.319C1.512 7.307 1.836 6.883 1.864 6.407C1.868 6.331 1.872 6.251 1.872 6.175C1.872 6.035 1.864 5.895 1.852 5.755C1.956 5.723 2.056 5.679 2.144 5.611C2.44 5.387 2.572 5.075 2.572 4.771C2.572 4.239 2.168 3.727 1.548 3.727C1.532 3.727 1.512 3.731 1.496 3.731C1.428 3.455 1.356 3.175 1.272 2.903C1.648 2.467 1.992 2.019 1.992 1.447C1.992 0.995 1.744 0.351 1.46 0.015C1.436 -0.005 1.404 -0.005 1.38 0.015C1.004 0.287 0.784 0.723 0.784 1.183C0.784 1.391 0.788 1.599 0.812 1.807C0.844 2.067 0.916 2.319 0.992 2.567C0.524 3.107 0 3.623 0 4.331C0 5.139 0.58 5.827 1.332 5.827ZM1.704 1.115C1.704 1.619 1.44 2.023 1.12 2.411C1.048 2.167 0.976 1.931 0.976 1.635C0.976 1.195 1.228 0.791 1.624 0.599C1.688 0.799 1.704 0.895 1.704 1.115Z"/></g>
<path d="M647.0,486.9 L650.1,486.9 L653.2,487.0 L656.2,487.0 L659.3,487.0 L662.4,487.0 L665.5,487.0 L668.6,487.0 L671.6,487.0 L674.7,487.1 L677.8,487.1 L680.9,487.1 L684.0,487.1 L687.0,487.1 L690.1,487.1 L693.2,487.1 L696.3,487.1 L699.4,487.2 L702.4,487.2 L705.5,487.2 L708.6,487.2 L711.7,487.2 L714.8,487.2 L717.8,487.2 L720.9,487.3 L724.0,487.3 L727.1,487.3 L730.2,487.3 L733.2,487.3 L736.3,487.3 L739.4,487.3 L742.5,487.4 L745.6,487.4 L748.6,487.4 L751.7,487.4 L754.8,487.4 L757.9,487.4 L761.0,487.4 L764.0,487.5 L767.1,487.5 L770.2,487.5 L773.3,487.5 L776.4,487.5 L779.4,487.5 L782.5,487.5 L785.6,487.6 L788.7,487.6 L791.8,487.6 L794.8,487.6 L797.9,487.6 L801.0,487.6 L804.1,487.7 L807.2,487.7 L810.2,487.7 L813.3,487.7 L816.4,487.7 L819.5,487.7 L822.6,487.7 L825.6,487.8 L828.7,487.8 L831.8,487.8 L834.9,487.8 L838.0,487.8 L841.0,487.8 L844.1,487.9 L847.2,487.9 L850.3,487.9 L853.4,487.9 L856.4,487.9 L859.5,487.9 L862.6,488.0 L865.7,488.0 L868.8,488.0 L871.8,488.0 L874.9,488.0 L878.0,488.0 L881.1,488.1 L884.2,488.1 L887.2,488.1 L890.3,488.1 L893.4,488.1 L896.5,488.1 L899.6,488.2 L902.6,488.2 L905.7,488.2 L908.8,488.2 L911.9,488.2 L915.0,488.2 L918.0,488.3 L921.1,488.3 L924.2,488.3 L927.3,488.3 L930.4,488.3 L933.4,488.3 L936.5,488.4 L939.6,488.4 L942.7,488.4 L945.8,488.4 L948.8,488.4 L951.9,488.5 L955.0,488.5 L958.1,488.5 L961.2,488.5 L964.2,488.5 L967.3,488.5 L970.4,488.6 L973.5,488.6 L976.6,488.6 L979.6,488.6 L982.7,488.6 L985.8,488.7 L988.9,488.7 L992.0,488.7 L995.0,488.7 L998.1,488.7 L1001.2,488.7 L1004.3,488.8 L1007.4,488.8 L1010.4,488.8 L1013.5,488.8 L1016.6,488.8 L1019.7,488.9 L1022.8,488.9 L1025.8,488.9 L1028.9,488.9 L1032.0,488.9 L1035.1,489.0 L1038.2,489.0 L1041.2,489.0 L1044.3,489.0 L1047.4,489.0 L1050.5,489.1 L1053.5,489.1 L1056.6,489.1 L1059.7,489.1 L1062.8,489.1 L1065.9,489.1 L1068.9,489.2 L1072.0,489.2 L1075.1,489.2 L1078.2,489.2 L1081.3,489.2 L1084.3,489.3 L1087.4,489.3 L1090.5,489.3 L1093.6,489.3 L1096.7,489.3 L1099.7,489.4 L1102.8,489.4 L1105.9,489.4 L1109.0,489.4 L1112.1,489.4 L1115.1,489.5 L1118.2,489.5 L1121.3,489.5 L1124.4,489.5 L1127.5,489.6 L1130.5,489.6 L1133.6,489.6 L1136.7,489.6 L1139.8,489.6 L1142.9,489.7 L1145.9,489.7 L1149.0,489.7 L1152.1,489.7 L1155.2,489.7 L1158.3,489.8 L1161.3,489.8 L1164.4,489.8 L1167.5,489.8 L1170.6,489.8 L1173.7,489.9 L1176.7,489.9 L1179.8,489.9 L1182.9,489.9 L1186.0,490.0 L1189.1,490.0 L1192.1,490.0 L1195.2,490.0 L1198.3,490.0 L1201.4,490.1 L1204.5,490.1 L1207.5,490.1 L1210.6,490.1 L1213.7,490.1 L1216.8,490.2 L1219.9,490.2 L1222.9,490.2 L1226.0,490.2 L1229.1,490.3 L1232.2,490.3 L1235.3,490.3 L1238.3,490.3 L1241.4,490.3 L1244.5,490.4 L1247.6,490.4 L1250.7,490.4 L1253.7,490.4 L1256.8,490.5 L1259.9,490.5 L1263.0,490.5 L1266.1,490.5 L1269.1,490.5 L1272.2,490.6 L1275.3,490.6 L1278.4,490.6 L1281.5,490.6 L1284.5,490.7 L1287.6,490.7 L1290.7,490.7 L1293.8,490.7 L1296.9,490.8 L1299.9,490.8 L1303.0,490.8 L1306.1,490.8 L1309.2,490.8 L1312.3,490.9 L1315.3,490.9 L1318.4,490.9 L1321.5,490.9 L1324.6,491.0 L1327.7,491.0 L1330.7,491.0 L1333.8,491.0 L1336.9,491.1 L1340.0,491.1 L1343.1,491.1 L1346.1,491.1 L1349.2,491.1 L1352.3,491.2 L1355.4,491.2 L1358.5,491.2 L1361.5,491.2 L1364.6,491.3 L1367.7,491.3 L1370.8,491.3 L1373.9,491.3 L1376.9,491.4 L1380.0,491.4 L1383.1,491.4 L1386.2,491.4 L1389.3,491.5 L1392.3,491.5 L1395.4,491.5 L1398.5,491.5 L1401.6,491.6 L1404.7,491.6 L1407.7,491.6 L1410.8,491.6 L1413.9,491.7 L1417.0,491.7 L1420.1,491.7 L1423.1,491.7 L1426.2,491.8 L1429.3,491.8 L1432.4,491.8 L1435.5,491.8 L1438.5,491.9 L1441.6,491.9 L1444.7,491.9 L1447.8,491.9 L1450.9,492.0 L1453.9,492.0 L1457.0,492.0 L1460.1,492.0 L1463.2,492.1 L1466.3,492.1 L1469.3,492.1 L1472.4,492.1 L1475.5,492.2 L1478.6,492.2 L1481.7,492.2 L1484.7,492.2 L1487.8,492.3 L1490.9,492.3 L1494.0,492.3 L1497.1,492.3 L1500.1,492.4 L1503.2,492.4 L1506.3,492.4 L1509.4,492.4 L1512.5,492.5 L1515.5,492.5 L1518.6,492.5 L1521.7,492.5 L1524.8,492.6 L1527.9,492.6 L1530.9,492.6 L1534.0,492.6 L1537.1,492.7 L1540.2,492.7 L1543.3,492.7 L1546.3,492.7 L1549.4,492.8 L1552.5,492.8 L1555.6,492.8 L1558.7,492.9 L1561.7,492.9 L1564.8,492.9 L1567.9,492.9 L1571.0,493.0 L1574.1,493.0 L1577.1,493.0 L1580.2,493.0 L1583.3,493.1 L1586.4,493.1 L1589.5,493.1 L1592.5,493.1 L1595.6,493.2 L1598.7,493.2 L1601.8,493.2 L1604.9,493.3 L1607.9,493.3 L1611.0,493.3 L1614.1,493.3 L1617.2,493.4 L1620.3,493.4 L1623.3,493.4 L1626.4,493.4 L1629.5,493.5 L1632.6,493.5 L1635.7,493.5 L1638.7,493.6 L1641.8,493.6 L1644.9,493.6 L1648.0,493.6 L1651.1,493.7 L1654.1,493.7 L1657.2,493.7 L1660.3,493.7 L1663.4,493.8 L1666.5,493.8 L1669.5,493.8 L1672.6,493.9 L1675.7,493.9 L1678.8,493.9 L1681.9,493.9 L1684.9,494.0 L1688.0,494.0 L1691.1,494.0 L1694.2,494.0 L1697.3,494.1 L1700.3,494.1 L1703.4,494.1 L1706.5,494.2 L1709.6,494.2 L1712.7,494.2 L1715.7,494.2 L1718.8,494.3 L1721.9,494.3 L1725.0,494.3 L1728.1,494.4 L1731.1,494.4 L1734.2,494.4 L1737.3,494.4 L1740.4,494.5 L1743.5,494.5 L1746.5,494.5 L1749.6,494.6 L1752.7,494.6 L1755.8,494.6 L1758.9,494.6 L1761.9,494.7 L1765.0,494.7 L1768.1,494.7 L1771.2,494.8 L1774.3,494.8 L1777.3,494.8 L1780.4,494.8 L1783.5,494.9 L1786.6,494.9 L1789.7,494.9 L1792.7,495.0 L1795.8,495.0 L1798.9,495.0 L1802.0,495.0 L1805.1,495.1 L1808.1,495.1 L1811.2,495.1 L1814.3,495.2 L1817.4,495.2 L1820.5,495.2 L1823.5,495.2 L1826.6,495.3 L1829.7,495.3 L1832.8,495.3 L1835.8,495.4 L1838.9,495.4 L1842.0,495.4 L1845.1,495.5 L1848.2,495.5 L1851.2,495.5 L1854.3,495.5 L1857.4,495.6 L1860.5,495.6 L1863.6,495.6 L1866.6,495.7 L1869.7,495.7 L1872.8,495.7 L1875.9,495.8 L1879.0,495.8 L1882.0,495.8 L1885.1,495.8 L1888.2,495.9 L1891.3,495.9 L1894.4,495.9 L1897.4,496.0 L1900.5,496.0 L1903.6,496.0 L1906.7,496.1 L1909.8,496.1 L1912.8,496.1 L1915.9,496.1 L1919.0,496.2 L1919.0,600.7 L647.0,600.7 Z" fill="#F04B00" fill-opacity="0.3" stroke="#F04B00" stroke-width="2" stroke-opacity="1" stroke-linejoin="round" opacity="0.3"/>
<path d="M145.0,699.2 L148.0,699.2 L151.1,699.2 L154.2,699.2 L157.3,699.2 L160.4,699.3 L163.4,699.3 L166.5,699.3 L169.6,699.3 L172.7,699.3 L175.8,699.4 L178.8,699.4 L181.9,699.4 L185.0,699.4 L188.1,699.4 L191.2,699.4 L194.2,699.5 L197.3,699.5 L200.4,699.5 L203.5,699.5 L206.6,699.5 L209.6,699.5 L212.7,699.6 L215.8,699.6 L218.9,699.6 L222.0,699.6 L225.0,699.6 L228.1,699.7 L231.2,699.7 L234.3,699.7 L237.4,699.7 L240.4,699.7 L243.5,699.7 L246.6,699.8 L249.7,699.8 L252.8,699.8 L255.8,699.8 L258.9,699.8 L262.0,699.8 L265.1,699.9 L268.2,699.9 L271.2,699.9 L274.3,699.9 L277.4,699.9 L280.5,700.0 L283.6,700.0 L286.6,700.0 L289.7,700.0 L292.8,700.0 L295.9,700.0 L299.0,700.1 L302.0,700.1 L305.1,700.1 L308.2,700.1 L308.2,714.4 L145.0,714.4 Z" fill="#99FF00" fill-opacity="0.3" stroke="#99FF00" stroke-width="2" stroke-opacity="1" stroke-linejoin="round" opacity="0.3"/>
<path d="M647.0,680.3 L650.1,680.3 L653.2,680.2 L656.2,680.2 L659.3,680.2 L662.4,680.2 L665.5,680.1 L668.6,680.1 L671.6,680.1 L674.7,680.1 L677.8,680.0 L680.9,680.0 L684.0,680.0 L687.0,679.9 L690.1,679.9 L693.2,679.9 L696.3,679.9 L699.4,679.8 L702.4,679.8 L705.5,679.8 L708.6,679.8 L711.7,679.7 L714.8,679.7 L717.8,679.7 L720.9,679.6 L724.0,679.6 L727.1,679.6 L730.2,679.6 L733.2,679.5 L736.3,679.5 L739.4,679.5 L742.5,679.5 L745.6,679.4 L748.6,679.4 L751.7,679.4 L754.8,679.3 L757.9,679.3 L761.0,679.3 L764.0,679.3 L767.1,679.2 L770.2,679.2 L773.3,679.2 L776.4,679.2 L779.4,679.1 L782.5,679.1 L785.6,679.1 L788.7,679.0 L791.8,679.0 L794.8,679.0 L797.9,679.0 L801.0,678.9 L804.1,678.9 L807.2,678.9 L810.2,678.9 L813.3,678.8 L816.4,678.8 L819.5,678.8 L822.6,678.7 L825.6,678.7 L828.7,678.7 L831.8,678.7 L834.9,678.6 L838.0,678.6 L841.0,678.6 L844.1,678.6 L847.2,678.5 L850.3,678.5 L853.4,678.5 L856.4,678.5 L859.5,678.4 L862.6,678.4 L865.7,678.4 L868.8,678.3 L871.8,678.3 L874.9,678.3 L878.0,678.3 L881.1,678.2 L884.2,678.2 L887.2,678.2 L890.3,678.2 L893.4,678.1 L896.5,678.1 L899.6,678.1 L902.6,678.0 L905.7,678.0 L908.8,678.0 L911.9,678.0 L915.0,677.9 L918.0,677.9 L921.1,677.9 L924.2,677.9 L927.3,677.8 L930.4,677.8 L933.4,677.8 L936.5,677.7 L939.6,677.7 L942.7,677.7 L945.8,677.7 L948.8,677.6 L951.9,677.6 L955.0,677.6 L958.1,677.6 L961.2,677.5 L964.2,677.5 L967.3,677.5 L970.4,677.4 L973.5,677.4 L976.6,677.4 L979.6,677.4 L982.7,677.3 L985.8,677.3 L988.9,677.3 L992.0,677.3 L995.0,677.2 L998.1,677.2 L1001.2,677.2 L1004.3,677.1 L1007.4,677.1 L1010.4,677.1 L1013.5,677.1 L1016.6,677.0 L1019.7,677.0 L1022.8,677.0 L1025.8,677.0 L1028.9,676.9 L1032.0,676.9 L1035.1,676.9 L1038.2,676.9 L1041.2,676.8 L1044.3,676.8 L1047.4,676.8 L1050.5,676.7 L1053.5,676.7 L1056.6,676.7 L1059.7,676.7 L1062.8,676.6 L1065.9,676.6 L1068.9,676.6 L1072.0,676.6 L1075.1,676.5 L1078.2,676.5 L1081.3,676.5 L1084.3,676.4 L1087.4,676.4 L1090.5,676.4 L1093.6,676.4 L1096.7,676.3 L1099.7,676.3 L1102.8,676.3 L1105.9,676.3 L1109.0,676.2 L1112.1,676.2 L1115.1,676.2 L1118.2,676.1 L1121.3,676.1 L1124.4,676.1 L1127.5,676.1 L1130.5,676.0 L1133.6,676.0 L1136.7,676.0 L1139.8,676.0 L1142.9,675.9 L1145.9,675.9 L1149.0,675.9 L1152.1,675.8 L1155.2,675.8 L1158.3,675.8 L1161.3,675.8 L1164.4,675.7 L1167.5,675.7 L1170.6,675.7 L1173.7,675.7 L1176.7,675.6 L1179.8,675.6 L1182.9,675.6 L1186.0,675.5 L1189.1,675.5 L1192.1,675.5 L1195.2,675.5 L1198.3,675.4 L1201.4,675.4 L1204.5,675.4 L1207.5,675.4 L1210.6,675.3 L1213.7,675.3 L1216.8,675.3 L1219.9,675.3 L1222.9,675.2 L1226.0,675.2 L1229.1,675.2 L1232.2,675.1 L1235.3,675.1 L1238.3,675.1 L1241.4,675.1 L1244.5,675.0 L1247.6,675.0 L1250.7,675.0 L1253.7,675.0 L1256.8,674.9 L1259.9,674.9 L1263.0,674.9 L1266.1,674.8 L1269.1,674.8 L1272.2,674.8 L1275.3,674.8 L1278.4,674.7 L1281.5,674.7 L1284.5,674.7 L1287.6,674.7 L1290.7,674.6 L1293.8,674.6 L1296.9,674.6 L1299.9,674.5 L1303.0,674.5 L1306.1,674.5 L1309.2,674.5 L1312.3,674.4 L1315.3,674.4 L1318.4,674.4 L1321.5,674.4 L1324.6,674.3 L1327.7,674.3 L1330.7,674.3 L1333.8,674.2 L1336.9,674.2 L1340.0,674.2 L1343.1,674.2 L1346.1,674.1 L1349.2,674.1 L1352.3,674.1 L1355.4,674.1 L1358.5,674.0 L1361.5,674.0 L1364.6,674.0 L1367.7,674.0 L1370.8,673.9 L1373.9,673.9 L1376.9,673.9 L1380.0,673.8 L1383.1,673.8 L1386.2,673.8 L1389.3,673.8 L1392.3,673.7 L1395.4,673.7 L1398.5,673.7 L1401.6,673.7 L1404.7,673.6 L1407.7,673.6 L1410.8,673.6 L1413.9,673.5 L1417.0,673.5 L1420.1,673.5 L1423.1,673.5 L1426.2,673.4 L1429.3,673.4 L1432.4,673.4 L1435.5,673.4 L1438.5,673.3 L1441.6,673.3 L1444.7,673.3 L1447.8,673.2 L1450.9,673.2 L1453.9,673.2 L1457.0,673.2 L1460.1,673.1 L1463.2,673.1 L1466.3,673.1 L1469.3,673.1 L1472.4,673.0 L1475.5,673.0 L1478.6,673.0 L1481.7,672.9 L1484.7,672.9 L1487.8,672.9 L1490.9,672.9 L1494.0,672.8 L1497.1,672.8 L1500.1,672.8 L1503.2,672.8 L1506.3,672.7 L1509.4,672.7 L1512.5,672.7 L1515.5,672.7 L1518.6,672.6 L1521.7,672.6 L1524.8,672.6 L1527.9,672.5 L1530.9,672.5 L1534.0,672.5 L1537.1,672.5 L1540.2,672.4 L1543.3,672.4 L1546.3,672.4 L1549.4,672.4 L1552.5,672.3 L1555.6,672.3 L1558.7,672.3 L1561.7,672.2 L1564.8,672.2 L1567.9,672.2 L1571.0,672.2 L1574.1,672.1 L1577.1,672.1 L1580.2,672.1 L1583.3,672.1 L1586.4,672.0 L1589.5,672.0 L1592.5,672.0 L1595.6,671.9 L1598.7,671.9 L1601.8,671.9 L1604.9,671.9 L1607.9,671.8 L1611.0,671.8 L1614.1,671.8 L1617.2,671.8 L1620.3,671.7 L1623.3,671.7 L1626.4,671.7 L1629.5,671.7 L1632.6,671.6 L1635.7,671.6 L1638.7,671.6 L1641.8,671.5 L1644.9,671.5 L1648.0,671.5 L1651.1,671.5 L1654.1,671.4 L1657.2,671.4 L1660.3,671.4 L1663.4,671.4 L1666.5,671.3 L1669.5,671.3 L1672.6,671.3 L1675.7,671.2 L1678.8,671.2 L1681.9,671.2 L1684.9,671.2 L1688.0,671.1 L1691.1,671.1 L1694.2,671.1 L1697.3,671.1 L1700.3,671.0 L1703.4,671.0 L1706.5,671.0 L1709.6,670.9 L1712.7,670.9 L1715.7,670.9 L1718.8,670.9 L1721.9,670.8 L1725.0,670.8 L1728.1,670.8 L1731.1,670.8 L1734.2,670.7 L1737.3,670.7 L1740.4,670.7 L1743.5,670.7 L1746.5,670.6 L1749.6,670.6 L1752.7,670.6 L1755.8,670.5 L1758.9,670.5 L1761.9,670.5 L1765.0,670.5 L1768.1,670.4 L1771.2,670.4 L1774.3,670.4 L1777.3,670.4 L1780.4,670.3 L1783.5,670.3 L1786.6,670.3 L1789.7,670.2 L1792.7,670.2 L1795.8,670.2 L1798.9,670.2 L1802.0,670.1 L1805.1,670.1 L1808.1,670.1 L1811.2,670.1 L1814.3,670.0 L1817.4,670.0 L1820.5,670.0 L1823.5,669.9 L1826.6,669.9 L1829.7,669.9 L1832.8,669.9 L1835.8,669.8 L1838.9,669.8 L1842.0,669.8 L1845.1,669.8 L1848.2,669.7 L1851.2,669.7 L1854.3,669.7 L1857.4,669.7 L1860.5,669.6 L1863.6,669.6 L1866.6,669.6 L1869.7,669.5 L1872.8,669.5 L1875.9,669.5 L1879.0,669.5 L1882.0,669.4 L1885.1,669.4 L1888.2,669.4 L1891.3,669.4 L1894.4,669.3 L1897.4,669.3 L1900.5,669.3 L1903.6,669.2 L1906.7,669.2 L1909.8,669.2 L1912.8,669.2 L1915.9,669.1 L1919.0,669.1 L1919.0,714.4 L647.0,714.4 Z" fill="#99FF00" fill-opacity="0.3" stroke="#99FF00" stroke-width="2" stroke-opacity="1" stroke-linejoin="round" opacity="0.3"/>
<g transform="translate(1613.796 669.456) scale(15.80000)"><path transform="scale(0.7500 0.7500)" d="M 0.5445 0.0735 c -0.0855 0 -0.156 0.168 -0.156 0.267 c 0 0.033 0.0135 0.057 0.0465 0.057 c 0.0255 0 0.0525 -0.018 0.0705 -0.042 c 0.036 -0.0495 0.0765 -0.177 0.0765 -0.2325 c 0 -0.027 -0.0105 -0.0495 -0.0375 -0.0495 z M 0.3 0.0735 c -0.078 0 -0.066 0.1845 -0.1515 0.1845 c -0.018 0 -0.0315 -0.009 -0.0315 -0.027 c 0 -0.006 0.0015 -0.012 0.0045 -0.0195 c 0.045 -0.102 0.1125 -0.2115 0.204 -0.2115 c 0.0495 0 0.0795 0.0345 0.09 0.078 c 0.0435 -0.0465 0.1005 -0.078 0.1545 -0.078 c 0.1035 0 0.1605 0.0735 0.1605 0.171 c 0 0.141 -0.123 0.285 -0.24 0.285 c -0.0405 0 -0.078 -0.0075 -0.1095 -0.0255 c -0.015 -0.009 -0.036 -0.0075 -0.0405 0.006 l -0.0255 0.0765 c -0.0045 0.012 -0.006 0.024 -0.006 0.0345 c 0 0.036 0.015 0.0435 0.048 0.0465 c 0.0195 0.0015 0.0285 0.0165 0.0285 0.0315 s -0.0105 0.0315 -0.03 0.0315 c -0.0525 0 -0.108 -0.0075 -0.162 -0.0075 c -0.0555 0 -0.111 0.0075 -0.1635 0.0075 c -0.0195 0 -0.03 -0.0165 -0.03 -0.0315 c 0 -0.0345 0.0435 -0.033 0.078 -0.0345 c 0.0375 -0.003 0.0735 -0.0225 0.0855 -0.0585 l 0.138 -0.408 c 0.0045 -0.0135 0.0105 -0.027 0.0105 -0.0375 c 0 -0.0075 -0.003 -0.0135 -0.012 -0.0135 z"/></g>
<g transform="translate(1609.145 666.201) scale(15.80000)"><path transform="scale(0.4300 0.4300)" d="M0.2 1.052C0.2 0.712 0.244 0.36 0.44 0.08C0.448 0.072 0.452 0.06 0.452 0.052C0.452 0.024 0.428 0 0.4 0C0.384 0 0.372 0.008 0.36 0.024C0.148 0.328 0 0.68 0 1.052C0 1.424 0.148 1.776 0.36 2.08C0.372 2.096 0.384 2.104 0.4 2.104C0.428 2.104 0.452 2.08 0.452 2.052C0.452 2.044 0.448 2.032 0.44 2.024C0.244 1.744 0.2 1.392 0.2 1.052Z"/></g>
<g transform="translate(1624.032 666.201) scale(15.80000)"><path transform="scale(0.4300 0.4300)" d="M0.252 1.052C0.252 1.392 0.208 1.744 0.012 2.024C0.004 2.032 0 2.044 0 2.052C0 2.08 0.024 2.104 0.052 2.104C0.068 2.104 0.08 2.096 0.092 2.08C0.304 1.776 0.452 1.424 0.452 1.052C0.452 0.68 0.304 0.328 0.092 0.024C0.08 0.008 0.068 0 0.052 0C0.024 0 0 0.024 0 0.052C0 0.06 0.004 0.072 0.012 0.08C0.208 0.36 0.252 0.712 0.252 1.052Z"/></g>
<g transform="translate(622.396 601.591) scale(15.80000)"><path d="M 0.992 0.24 c 0 -0.0736 -0.0608 -0.128 -0.128 -0.128 c -0.0128 0 -0.0256 0.0032 -0.0384 0.0064 c -0.096 0.0256 -0.24 0.1216 -0.3552 0.1952 s -0.2592 0.1664 -0.3232 0.2432 c -0.0224 0.0256 -0.032 0.0544 -0.032 0.0864 c 0 0.0736 0.0608 0.128 0.128 0.128 c 0.0128 0 0.0256 -0.0032 0.0384 -0.0064 c 0.096 -0.0256 0.24 -0.1216 0.3552 -0.1952 s 0.2592 -0.1664 0.3232 -0.2432 c 0.0224 -0.0256 0.032 -0.0544 0.032 -0.0864 z M 0.8192 0 c 0.16 0 0.288 0.0704 0.288 0.2464 c 0 0.0576 -0.016 0.1184 -0.032 0.176 c -0.0352 0.1216 -0.096 0.2368 -0.2016 0.3072 c -0.1696 0.112 -0.3552 0.1536 -0.5856 0.1536 c -0.16 0 -0.288 -0.0704 -0.288 -0.2464 c 0 -0.0576 0.016 -0.1184 0.032 -0.176 c 0.0352 -0.1216 0.096 -0.2368 0.2016 -0.3072 c 0.1696 -0.1152 0.3552 -0.1536 0.5856 -0.1536 z"/></g>
<g transform="translate(555.695 601.591) scale(15.80000)"><path d="M 0.992 0.24 c 0 -0.0736 -0.0608 -0.128 -0.128 -0.128 c -0.0128 0 -0.0256 0.0032 -0.0384 0.0064 c -0.096 0.0256 -0.24 0.1216 -0.3552 0.1952 s -0.2592 0.1664 -0.3232 0.2432 c -0.0224 0.0256 -0.032 0.0544 -0.032 0.0864 c 0 0.0736 0.0608 0.128 0.128 0.128 c 0.0128 0 0.0256 -0.0032 0.0384 -0.0064 c 0.096 -0.0256 0.24 -0.1216 0.3552 -0.1952 s 0.2592 -0.1664 0.3232 -0.2432 c 0.0224 -0.0256 0.032 -0.0544 0.032 -0.0864 z M 0.8192 0 c 0.16 0 0.288 0.0704 0.288 0.2464 c 0 0.0576 -0.016 0.1184 -0.032 0.176 c -0.0352 0.1216 -0.096 0.2368 -0.2016 0.3072 c -0.1696 0.112 -0.3552 0.1536 -0.5856 0.1536 c -0.16 0 -0.288 -0.0704 -0.288 -0.2464 c 0 -0.0576 0.016 -0.1184 0.032 -0.176 c 0.0352 -0.1216 0.096 -0.2368 0.2016 -0.3072 c 0.1696 -0.1152 0.3552 -0.1536 0.5856 -0.1536 z"/></g>
<text x="573.2" y="559.6" font-size="15.4" font-family="'Crimson Pro Light', serif" text-anchor="end" xml:space="preserve" fill="#111">8 (A1)</text>
<rect x="580.30" y="607.54" width="34.99" height="2.05"/>
<text x="639.9" y="559.6" font-size="15.4" font-family="'Crimson Pro Light', serif" text-anchor="end" xml:space="preserve" fill="#111">−25</text>
<g transform="translate(620.642 665.681) scale(15.80000)"><path d="M 0.528 0.3585 l -0.0705 0.2295 c -0.045 0.1485 -0.1815 0.3825 -0.327 0.3825 c -0.072 0 -0.1305 -0.0585 -0.1305 -0.132 c 0 -0.0585 0.0255 -0.1155 0.078 -0.1155 c 0.036 0 0.066 0.0285 0.066 0.0645 c 0 0.045 -0.057 0.0375 -0.057 0.0825 c 0 0.015 0.0165 0.0165 0.0345 0.0165 h 0.009 c 0.063 0 0.093 -0.0675 0.1095 -0.1335 l 0.099 -0.3945 h -0.0555 c -0.024 0 -0.0435 -0.0195 -0.0435 -0.0435 s 0.0195 -0.0435 0.0435 -0.0435 h 0.0795 c 0.051 -0.138 0.1785 -0.2715 0.315 -0.2715 c 0.072 0 0.1305 0.06 0.1305 0.1335 c 0 0.0585 -0.0255 0.1155 -0.078 0.1155 c -0.036 0 -0.066 -0.03 -0.066 -0.066 c 0 -0.045 0.057 -0.0375 0.057 -0.0825 c 0 -0.015 -0.015 -0.015 -0.033 -0.015 h -0.0105 c -0.078 0 -0.102 0.1005 -0.1245 0.186 h 0.063 c 0.024 0 0.0435 0.0195 0.0435 0.0435 s -0.0195 0.0435 -0.0435 0.0435 h -0.0885 z M 0.9377 0.3585 l -0.0705 0.2295 c -0.045 0.1485 -0.1815 0.3825 -0.327 0.3825 c -0.072 0 -0.1305 -0.0585 -0.1305 -0.132 c 0 -0.0585 0.0255 -0.1155 0.078 -0.1155 c 0.036 0 0.066 0.0285 0.066 0.0645 c 0 0.045 -0.057 0.0375 -0.057 0.0825 c 0 0.015 0.0165 0.0165 0.0345 0.0165 h 0.009 c 0.063 0 0.093 -0.0675 0.1095 -0.1335 l 0.099 -0.3945 h -0.0555 c -0.024 0 -0.0435 -0.0195 -0.0435 -0.0435 s 0.0195 -0.0435 0.0435 -0.0435 h 0.0795 c 0.051 -0.138 0.1785 -0.2715 0.315 -0.2715 c 0.072 0 0.1305 0.06 0.1305 0.1335 c 0 0.0585 -0.0255 0.1155 -0.078 0.1155 c -0.036 0 -0.066 -0.03 -0.066 -0.066 c 0 -0.045 0.057 -0.0375 0.057 -0.0825 c 0 -0.015 -0.015 -0.015 -0.033 -0.015 h -0.0105 c -0.078 0 -0.102 0.1005 -0.1245 0.186 h 0.063 c 0.024 0 0.0435 0.0195 0.0435 0.0435 s -0.0195 0.0435 -0.0435 0.0435 h -0.0885 z"/></g>
<line x1="581.93" y1="673.35" x2="606.42" y2="673.35" stroke="#111" stroke-width="2.05"/>
<path d="M613.53,673.35 L606.42,670.15 L606.42,676.55 Z"/>
<g transform="translate(546.017 668.158) scale(15.80000)"><path d="M 0.5445 0.0735 c -0.0855 0 -0.156 0.168 -0.156 0.267 c 0 0.033 0.0135 0.057 0.0465 0.057 c 0.0255 0 0.0525 -0.018 0.0705 -0.042 c 0.036 -0.0495 0.0765 -0.177 0.0765 -0.2325 c 0 -0.027 -0.0105 -0.0495 -0.0375 -0.0495 z M 0.3 0.0735 c -0.078 0 -0.066 0.1845 -0.1515 0.1845 c -0.018 0 -0.0315 -0.009 -0.0315 -0.027 c 0 -0.006 0.0015 -0.012 0.0045 -0.0195 c 0.045 -0.102 0.1125 -0.2115 0.204 -0.2115 c 0.0495 0 0.0795 0.0345 0.09 0.078 c 0.0435 -0.0465 0.1005 -0.078 0.1545 -0.078 c 0.1035 0 0.1605 0.0735 0.1605 0.171 c 0 0.141 -0.123 0.285 -0.24 0.285 c -0.0405 0 -0.078 -0.0075 -0.1095 -0.0255 c -0.015 -0.009 -0.036 -0.0075 -0.0405 0.006 l -0.0255 0.0765 c -0.0045 0.012 -0.006 0.024 -0.006 0.0345 c 0 0.036 0.015 0.0435 0.048 0.0465 c 0.0195 0.0015 0.0285 0.0165 0.0285 0.0315 s -0.0105 0.0315 -0.03 0.0315 c -0.0525 0 -0.108 -0.0075 -0.162 -0.0075 c -0.0555 0 -0.111 0.0075 -0.1635 0.0075 c -0.0195 0 -0.03 -0.0165 -0.03 -0.0315 c 0 -0.0345 0.0435 -0.033 0.078 -0.0345 c 0.0375 -0.003 0.0735 -0.0225 0.0855 -0.0585 l 0.138 -0.408 c 0.0045 -0.0135 0.0105 -0.027 0.0105 -0.0375 c 0 -0.0075 -0.003 -0.0135 -0.012 -0.0135 z M 1.0908 0.0735 c -0.0855 0 -0.156 0.168 -0.156 0.267 c 0 0.033 0.0135 0.057 0.0465 0.057 c 0.0255 0 0.0525 -0.018 0.0705 -0.042 c 0.036 -0.0495 0.0765 -0.177 0.0765 -0.2325 c 0 -0.027 -0.0105 -0.0495 -0.0375 -0.0495 z M 0.8463 0.0735 c -0.078 0 -0.066 0.1845 -0.1515 0.1845 c -0.018 0 -0.0315 -0.009 -0.0315 -0.027 c 0 -0.006 0.0015 -0.012 0.0045 -0.0195 c 0.045 -0.102 0.1125 -0.2115 0.204 -0.2115 c 0.0495 0 0.0795 0.0345 0.09 0.078 c 0.0435 -0.0465 0.1005 -0.078 0.1545 -0.078 c 0.1035 0 0.1605 0.0735 0.1605 0.171 c 0 0.141 -0.123 0.285 -0.24 0.285 c -0.0405 0 -0.078 -0.0075 -0.1095 -0.0255 c -0.015 -0.009 -0.036 -0.0075 -0.0405 0.006 l -0.0255 0.0765 c -0.0045 0.012 -0.006 0.024 -0.006 0.0345 c 0 0.036 0.015 0.0435 0.048 0.0465 c 0.0195 0.0015 0.0285 0.0165 0.0285 0.0315 s -0.0105 0.0315 -0.03 0.0315 c -0.0525 0 -0.108 -0.0075 -0.162 -0.0075 c -0.0555 0 -0.111 0.0075 -0.1635 0.0075 c -0.0195 0 -0.03 -0.0165 -0.03 -0.0315 c 0 -0.0345 0.0435 -0.033 0.078 -0.0345 c 0.0375 -0.003 0.0735 -0.0225 0.0855 -0.0585 l 0.138 -0.408 c 0.0045 -0.0135 0.0105 -0.027 0.0105 -0.0375 c 0 -0.0075 -0.003 -0.0135 -0.012 -0.0135 z M 1.6371 0.0735 c -0.0855 0 -0.156 0.168 -0.156 0.267 c 0 0.033 0.0135 0.057 0.0465 0.057 c 0.0255 0 0.0525 -0.018 0.0705 -0.042 c 0.036 -0.0495 0.0765 -0.177 0.0765 -0.2325 c 0 -0.027 -0.0105 -0.0495 -0.0375 -0.0495 z M 1.3926 0.0735 c -0.078 0 -0.066 0.1845 -0.1515 0.1845 c -0.018 0 -0.0315 -0.009 -0.0315 -0.027 c 0 -0.006 0.0015 -0.012 0.0045 -0.0195 c 0.045 -0.102 0.1125 -0.2115 0.204 -0.2115 c 0.0495 0 0.0795 0.0345 0.09 0.078 c 0.0435 -0.0465 0.1005 -0.078 0.1545 -0.078 c 0.1035 0 0.1605 0.0735 0.1605 0.171 c 0 0.141 -0.123 0.285 -0.24 0.285 c -0.0405 0 -0.078 -0.0075 -0.1095 -0.0255 c -0.015 -0.009 -0.036 -0.0075 -0.0405 0.006 l -0.0255 0.0765 c -0.0045 0.012 -0.006 0.024 -0.006 0.0345 c 0 0.036 0.015 0.0435 0.048 0.0465 c 0.0195 0.0015 0.0285 0.0165 0.0285 0.0315 s -0.0105 0.0315 -0.03 0.0315 c -0.0525 0 -0.108 -0.0075 -0.162 -0.0075 c -0.0555 0 -0.111 0.0075 -0.1635 0.0075 c -0.0195 0 -0.03 -0.0165 -0.03 -0.0315 c 0 -0.0345 0.0435 -0.033 0.078 -0.0345 c 0.0375 -0.003 0.0735 -0.0225 0.0855 -0.0585 l 0.138 -0.408 c 0.0045 -0.0135 0.0105 -0.027 0.0105 -0.0375 c 0 -0.0075 -0.003 -0.0135 -0.012 -0.0135 z"/></g>
<line x1="647.00" y1="486.9" x2="647.00" y2="714.4" stroke="#333" stroke-width="1.5" stroke-opacity="0.85" stroke-dasharray="5,4"/>
</g>
<g class="sysgrp sysgrp-bracket" fill="#111">
<rect x="51.84" y="98.13" width="7.11" height="298.67"/>
<g transform="translate(51.839 77.104) scale(15.80000)"><path d="M0 1.555H0.3C0.992 1.555 1.456 0.675 1.852 0.099C1.896 0.031 1.792 -0.041 1.748 0.027C1.384 0.563 0.936 1.107 0.3 1.107H0.1C0.044 1.107 0 1.151 0 1.207Z"/></g>
<g transform="translate(51.839 393.262) scale(15.80000)"><path d="M0 0V0.348C0 0.404 0.044 0.448 0.1 0.448H0.3C0.936 0.448 1.384 0.992 1.748 1.528C1.792 1.596 1.896 1.524 1.852 1.456C1.456 0.88 0.992 0 0.3 0Z"/></g>
</g>
<g class="sysgrp sysgrp-bracket" fill="#111">
<rect x="51.84" y="569.07" width="7.11" height="298.67"/>
<g transform="translate(51.839 548.039) scale(15.80000)"><path d="M0 1.555H0.3C0.992 1.555 1.456 0.675 1.852 0.099C1.896 0.031 1.792 -0.041 1.748 0.027C1.384 0.563 0.936 1.107 0.3 1.107H0.1C0.044 1.107 0 1.151 0 1.207Z"/></g>
<g transform="translate(51.839 864.196) scale(15.80000)"><path d="M0 0V0.348C0 0.404 0.044 0.448 0.1 0.448H0.3C0.936 0.448 1.384 0.992 1.748 1.528C1.792 1.596 1.896 1.524 1.852 1.456C1.456 0.88 0.992 0 0.3 0Z"/></g>
</g>
<g class="sysgrp sysgrp-bracket" fill="#111">
<rect x="51.84" y="1763.20" width="7.11" height="298.67"/>
<g transform="translate(51.839 1742.169) scale(15.80000)"><path d="M0 1.555H0.3C0.992 1.555 1.456 0.675 1.852 0.099C1.896 0.031 1.792 -0.041 1.748 0.027C1.384 0.563 0.936 1.107 0.3 1.107H0.1C0.044 1.107 0 1.151 0 1.207Z"/></g>
<g transform="translate(51.839 2058.327) scale(15.80000)"><path d="M0 0V0.348C0 0.404 0.044 0.448 0.1 0.448H0.3C0.936 0.448 1.384 0.992 1.748 1.528C1.792 1.596 1.896 1.524 1.852 1.456C1.456 0.88 0.992 0 0.3 0Z"/></g>
</g>
<g class="sysgrp sysgrp-brace" fill="#111"><g transform="translate(62.378 1166.134) scale(15.80000)"><path transform="scale(0.9957 0.9957)" d="M0.08 23.001C0.08 24.441 0.36 25.801 1.22 26.961C1.3 27.061 1.46 26.961 1.38 26.861C0.72 25.981 0.5 24.941 0.5 23.861C0.5 21.781 1.26 19.661 1.26 17.481C1.26 16.061 0.98 14.661 0.14 13.501C0.98 12.341 1.26 10.941 1.26 9.521C1.26 7.341 0.5 5.221 0.5 3.141C0.5 2.061 0.72 1.021 1.38 0.141C1.46 0.041 1.3 -0.059 1.22 0.041C0.36 1.201 0.08 2.561 0.08 4.001C0.08 6.221 0.88 8.381 0.88 10.501C0.88 11.561 0.66 12.581 0 13.461V13.501V13.541C0.66 14.421 0.88 15.441 0.88 16.501C0.88 18.621 0.08 20.781 0.08 23.001Z"/></g></g>
<g class="anim"><line x1="924.2" y1="16.0" x2="924.2" y2="2144.0" stroke="#FF15A0" stroke-width="3" opacity="1"/>
<rect x="913.2" y="488.3" width="8" height="112.4" fill="#F04B00" opacity="0.3"/>
<rect x="913.2" y="486.9" width="8" height="113.7" fill="none" stroke="#F04B00" stroke-width="1.5" opacity="0.8"/>
<rect x="913.2" y="677.9" width="8" height="36.5" fill="#99FF00" opacity="0.3"/>
<rect x="913.2" y="600.7" width="8" height="113.7" fill="none" stroke="#99FF00" stroke-width="1.5" opacity="0.8"/>
<circle cx="902.2" cy="496.9" r="9.0" fill="none" stroke="#607D8B" stroke-width="1" opacity="0.5"/>
<g class="breath-pie" fill="#607D8B" opacity="0.75"><path d="M 902.2 496.9 L 905.0 488.4 A 9.0 9.0 0 0 1 910.9 499.1 A 9.0 9.0 0 0 1 900.8 505.8 A 9.0 9.0 0 0 1 893.2 496.2 A 9.0 9.0 0 0 1 902.2 487.9 Z"/></g>
<line class="breath-hand" x1="902.2" y1="496.9" x2="905.0" y2="488.4" stroke="#000" stroke-width="1" stroke-linecap="round"/></g></svg>